<?xml version="1.0" encoding="UTF-8" standalone="no"?>
<!DOCTYPE svg PUBLIC "-//W3C//DTD SVG 1.1//EN" "http://www.w3.org/Graphics/SVG/1.1/DTD/svg11.dtd">
<svg width="100%" height="100%" viewBox="0 0 1925 2038" version="1.1" xmlns="http://www.w3.org/2000/svg" xmlns:xlink="http://www.w3.org/1999/xlink" xml:space="preserve" xmlns:serif="http://www.serif.com/" style="fill-rule:evenodd;clip-rule:evenodd;stroke-linejoin:round;stroke-miterlimit:2;">
    <g transform="matrix(1,0,0,1,-37,-1)">
        <g>
            <g transform="matrix(0.687338,0,0,0.819038,-474.821,784.759)">
                <path d="M2663.64,-798.098C2663.64,-762.917 2662.47,-739.464 2660.12,-727.737C2657.78,-716.01 2653.09,-713.665 2646.05,-720.701C2634.33,-732.428 2618.49,-745.913 2598.56,-761.158C2578.62,-776.403 2544.03,-784.026 2494.78,-784.026C2452.56,-784.026 2413.86,-781.68 2378.68,-776.989C2343.5,-772.299 2307.73,-762.917 2271.38,-748.845C2235.03,-734.773 2196.92,-715.424 2157.04,-690.798C2117.17,-666.171 2072.61,-632.75 2023.36,-590.533C1953,-531.9 1876.77,-445.708 1794.69,-331.958C1712.6,-218.208 1629.92,-93.904 1546.66,40.954C1463.4,175.812 1384.25,313.016 1309.2,452.564C1234.15,592.113 1168.48,717.004 1112.19,827.235C1093.42,864.761 1072.9,908.737 1050.62,959.162C1028.34,1009.59 1008.4,1060.01 990.815,1110.44C973.225,1160.86 958.567,1207.77 946.84,1251.16C935.113,1294.55 929.25,1326.8 929.25,1347.9C929.25,1411.23 950.358,1442.89 992.574,1442.89C1018.37,1442.89 1047.69,1430.58 1080.53,1405.95C1113.36,1381.33 1145.02,1346.15 1175.51,1300.41C1206,1254.68 1231.8,1198.39 1252.91,1131.55C1274.02,1064.7 1284.57,989.065 1284.57,904.632C1284.57,876.488 1282.81,853.621 1279.29,836.03C1275.78,818.44 1271.67,803.782 1266.98,792.055C1266.98,777.983 1274.02,763.911 1288.09,749.839C1297.47,740.457 1309.2,729.317 1323.27,716.417C1337.34,703.518 1350.24,693.55 1361.97,686.514C1369,686.514 1373.69,688.859 1376.04,693.55C1376.04,740.457 1384.84,779.742 1402.43,811.404C1420.02,843.067 1442.3,868.865 1469.27,888.801C1496.24,908.737 1525.56,923.395 1557.22,932.776C1588.88,942.158 1618.79,946.849 1646.93,946.849C1686.8,946.849 1730.19,940.399 1777.1,927.499C1824,914.6 1872.08,892.905 1921.34,862.416C1933.06,855.38 1940.68,855.966 1944.2,864.175C1947.72,872.383 1943.62,878.833 1931.89,883.524C1856.84,923.395 1788.24,952.712 1726.09,971.475C1663.93,990.238 1605.88,999.619 1551.94,999.619C1507.38,999.619 1466.92,989.651 1430.57,969.716C1394.22,949.78 1366.66,926.913 1347.9,901.114C1347.9,990.238 1333.24,1071.15 1303.92,1143.86C1274.6,1216.57 1238.84,1278.13 1196.62,1328.56C1154.4,1378.98 1108.67,1418.27 1059.42,1446.41C1010.16,1474.55 965.603,1488.63 925.732,1488.63C888.206,1488.63 857.13,1476.9 832.504,1453.45C807.877,1429.99 795.564,1393.64 795.564,1344.39C795.564,1306.86 803.773,1261.13 820.19,1207.18C836.608,1153.24 857.13,1098.71 881.756,1043.6C906.382,988.479 931.595,935.708 957.394,885.283C983.193,834.858 1004.3,794.4 1020.72,763.911C1084.04,646.643 1152.06,527.03 1224.77,405.071C1297.47,283.112 1374.28,162.326 1455.2,42.713C1536.11,-76.9 1621.72,-192.409 1712.01,-303.813C1802.31,-415.218 1897.88,-517.827 1998.73,-611.642C2026.88,-637.441 2062.64,-667.93 2106.03,-703.111C2149.42,-738.291 2195.74,-771.712 2244.99,-803.375C2294.25,-835.037 2344.09,-861.422 2394.51,-882.531C2444.94,-903.639 2491.26,-914.193 2533.47,-914.193C2575.69,-914.193 2607.94,-903.052 2630.22,-880.772C2652.5,-858.491 2663.64,-830.933 2663.64,-798.098Z" style="fill:rgb(0,227,255);fill-rule:nonzero;"/>
                <path d="M1392.69,999.788C1391.38,1010.04 1389.85,1020.17 1388.11,1030.19C1380.33,1075 1368.33,1117.45 1352.15,1157.56C1337.62,1193.6 1321.56,1227.03 1304.01,1257.85C1284.03,1292.93 1262.1,1324.68 1238.29,1353.12C1216.74,1378.86 1194.31,1401.89 1171.06,1422.25C1144.49,1445.51 1116.81,1465.32 1088.08,1481.73C1056.8,1499.61 1027.05,1512.41 999.045,1520.46C973.39,1527.85 948.926,1531.36 925.732,1531.36C899.395,1531.36 875.36,1527.07 853.541,1518.86C831.549,1510.58 811.718,1498.29 794.298,1481.7C778.669,1466.81 766.297,1448.32 757.84,1425.92C749.267,1403.22 744.643,1376.07 744.643,1344.39C744.643,1325.79 746.423,1305.37 750.072,1283.12C754.368,1256.93 761.273,1228.09 770.853,1196.61C779.411,1168.49 789.052,1140.22 799.78,1111.79C810.189,1084.2 821.62,1056.47 834.077,1028.59L910.603,868.423C910.603,868.423 974.315,746.314 974.338,746.272C1006.59,686.539 1040.06,626.2 1074.74,565.256C1108.42,506.059 1143.25,446.291 1179.23,385.951C1215.86,324.506 1253.52,263.356 1292.23,202.503C1330.76,141.914 1370.32,81.618 1410.91,21.616C1451.5,-38.378 1493.25,-97.348 1536.18,-155.294C1579.56,-213.858 1624.14,-271.375 1669.91,-327.847C1714.96,-383.431 1761.31,-436.856 1808.95,-488.122C1858.23,-541.143 1908.88,-591.857 1961.17,-640.497L2070.65,-733.843C2093.21,-752.131 2116.53,-769.96 2140.62,-787.328C2164.35,-804.431 2188.81,-821.089 2214.03,-837.298C2239.28,-853.534 2264.69,-868.445 2290.24,-882.04C2317.26,-896.417 2344.44,-909.324 2371.78,-920.77C2398.08,-931.779 2423.41,-940.192 2447.73,-946.104C2477.72,-953.397 2506.32,-956.926 2533.47,-956.926C2560.22,-956.926 2583.93,-953.339 2604.72,-946.681C2630.34,-938.474 2651.83,-925.641 2669.23,-908.242C2684.96,-892.506 2696.64,-874.846 2704.25,-855.26C2711.03,-837.805 2714.56,-818.764 2714.56,-798.098C2714.56,-776.796 2714.14,-759.605 2713.31,-746.527C2712.61,-735.349 2711.56,-726.733 2710.34,-720.664C2704.41,-691.021 2683.47,-680.259 2671.04,-676.595C2655,-671.863 2630.02,-670.258 2607.05,-693.231L2564.26,-729.572C2558.44,-734.021 2549.67,-736.243 2538.91,-738.119C2526.31,-740.314 2511.59,-741.292 2494.78,-741.292C2475.78,-741.292 2457.54,-740.791 2440.06,-739.781C2421.38,-738.701 2403.59,-737.041 2386.67,-734.786C2371.01,-732.697 2355.21,-729.521 2339.27,-725.281C2323.87,-721.184 2308.35,-716.097 2292.71,-710.041C2275.27,-703.292 2257.4,-695.195 2239.08,-685.78C2222.16,-677.089 2204.88,-667.285 2187.23,-656.381C2166.81,-643.769 2145.1,-628.693 2122.07,-611.185C2102.24,-596.108 2081.47,-579.257 2059.24,-560.211C2028.54,-534.631 1996.72,-503.519 1963.69,-466.939C1923.55,-422.495 1881.75,-370.113 1838.24,-309.821C1796.15,-251.49 1753.9,-190.362 1711.49,-126.439C1671.76,-66.54 1631.89,-4.189 1591.88,60.613C1550.38,127.833 1509.9,195.64 1470.45,264.032C1431.15,332.155 1392.87,400.859 1355.61,470.144C1355.61,470.144 1158.99,844.067 1159.14,843.77L1098.37,974.019C1087.5,998.62 1077.19,1023.22 1067.46,1047.82C1057.62,1072.7 1048.36,1097.57 1039.68,1122.44C1031.39,1146.23 1023.75,1169.22 1016.78,1191.41C1009.24,1215.41 1002.48,1238.48 996.5,1260.61C990.835,1281.57 986.594,1299.78 983.821,1315.25C981.467,1328.37 980.171,1339.25 980.171,1347.9C980.171,1363.01 981.453,1375.86 984.478,1386.42C985.69,1390.66 987.121,1394.39 989.05,1397.55C989.909,1398.95 990.78,1400.16 992.574,1400.16C999.667,1400.16 1007.02,1397.48 1015.22,1393.62C1025.2,1388.91 1035.6,1382.34 1046.59,1374.09C1062.05,1362.5 1077.13,1348.14 1091.99,1331.14C1105.25,1315.97 1118.26,1298.76 1131.07,1279.55C1146.21,1256.84 1160.07,1231.31 1172.71,1203C1184.01,1177.71 1194.33,1150.24 1203.69,1120.6C1214.16,1087.45 1221.85,1052 1226.82,1014.27C1231.38,979.627 1233.65,943.08 1233.65,904.632C1233.65,892.993 1233.33,882.324 1232.69,872.625C1231.94,861.38 1230.76,851.537 1229.08,843.104L1218.71,805.654C1216.95,801.271 1216.06,796.678 1216.06,792.055C1216.06,781.089 1218.34,770.108 1223.1,759.141C1228.39,746.929 1236.87,734.58 1249.08,722.368L1285.71,687.562C1294.73,679.291 1303.36,672.077 1311.54,665.892C1318.77,660.434 1325.72,655.733 1332.35,651.752C1340.99,646.568 1351.35,643.781 1361.97,643.781C1375.16,643.781 1386.07,646.534 1395.08,650.718C1407.39,656.437 1416.98,664.992 1423,677.016C1425.61,682.251 1426.96,687.872 1426.96,693.55C1426.96,712.636 1428.56,730.292 1431.87,746.511C1435.42,763.9 1440.9,779.534 1448.58,793.347C1455.66,806.105 1463.63,817.742 1472.54,828.226C1481.67,838.978 1491.78,848.495 1502.92,856.733C1513.8,864.77 1525.12,871.777 1536.93,877.724C1548.86,883.735 1561.27,888.658 1574.17,892.481C1586.82,896.23 1599.13,899.105 1611.11,901.063C1623.43,903.077 1635.37,904.116 1646.93,904.116C1664.98,904.116 1683.86,902.539 1703.59,899.461C1722.1,896.574 1741.32,892.37 1761.24,886.891C1783.13,880.871 1805.3,872.65 1827.76,862.301C1848.64,852.686 1869.75,841.249 1891.11,828.027C1891.31,827.901 1891.52,827.777 1891.72,827.654C1913.67,814.484 1933.11,813.502 1946.74,815.784C1965.67,818.953 1982.97,828.369 1992.12,849.712C1998.3,864.125 1997.44,877.225 1992.11,888.982C1986.84,900.596 1976.39,912.256 1957.03,920.734C1921.72,939.441 1887.78,955.873 1855.23,970.054C1815.96,987.162 1778.65,1001.02 1743.32,1011.69C1711.38,1021.33 1680.43,1028.66 1650.49,1033.73C1616.38,1039.51 1583.53,1042.35 1551.94,1042.35C1524.84,1042.35 1498.98,1039.29 1474.35,1033.27C1449.19,1027.12 1425.31,1017.88 1402.71,1005.49C1399.3,1003.62 1395.96,1001.72 1392.69,999.788ZM1253.99,451.712C1224.04,502.235 1194.93,552.363 1166.64,602.085C1132.26,662.507 1099.08,722.328 1067.12,781.508L1004.18,902.142L929.436,1058.6C917.609,1085.07 906.753,1111.4 896.87,1137.59C886.731,1164.46 877.616,1191.18 869.528,1217.76C862.525,1240.77 857.085,1262.19 853.242,1282.05C848.788,1305.06 846.485,1325.83 846.485,1344.39C846.485,1362.28 848.288,1378.12 852.22,1391.9C856.107,1405.51 861.865,1416.77 870.709,1425.19C877.968,1432.11 886.054,1437.43 895.218,1440.88C897.705,1441.81 900.265,1442.61 902.898,1443.26C902.156,1442.24 901.431,1441.19 900.72,1440.13C886.987,1419.59 878.328,1389.04 878.328,1347.9C878.328,1335.89 879.844,1320.76 883.113,1302.53C886.2,1285.31 890.875,1265.04 897.18,1241.71C903.411,1218.65 910.451,1194.62 918.305,1169.62C925.501,1146.71 933.381,1122.98 941.945,1098.43C950.961,1072.59 960.582,1046.74 970.807,1020.89C980.907,995.364 991.597,969.834 1002.88,944.304C1002.88,944.304 1065.23,810.701 1065.38,810.403L1253.99,451.712ZM1397.96,887.193C1404.31,894.653 1411.69,901.764 1420.06,908.557L1421.86,909.982C1413.46,902.918 1405.49,895.327 1397.96,887.193ZM1333.74,770.995L1327.1,777.309C1324.41,779.997 1322.14,782.648 1320.44,785.336C1319.55,786.724 1318.8,788.078 1318.36,789.441L1329.51,828.957C1331.34,838.087 1332.78,848.455 1333.78,860.063L1334.12,859.975C1352.17,855.718 1371.18,860.167 1383.97,870.96C1373.83,858.257 1364.59,844.428 1356.27,829.461C1346.53,811.929 1338.97,792.454 1333.74,770.995ZM2681.03,-751.612L2685.06,-748.171C2683.74,-749.483 2682.4,-750.625 2681.03,-751.612ZM2612.46,-805.322C2611.89,-813.662 2610.25,-821.485 2607.42,-828.775C2603.9,-837.841 2598.5,-846.018 2591.21,-853.301C2585.07,-859.445 2577.45,-863.935 2568.4,-866.833C2558.23,-870.09 2546.56,-871.46 2533.47,-871.46C2515.28,-871.46 2496.16,-868.9 2476.07,-864.014C2457.22,-859.431 2437.63,-852.824 2417.24,-844.291C2397.94,-836.21 2378.72,-827.304 2359.61,-817.567C2363.31,-818.164 2367,-818.701 2370.69,-819.193C2390.45,-821.828 2411.24,-823.783 2433.06,-825.045C2452.78,-826.185 2473.35,-826.759 2494.78,-826.759C2525.9,-826.759 2552.15,-823.984 2573.6,-818.957C2588.45,-815.478 2601.35,-810.86 2612.46,-805.322Z" style="fill:rgb(0,227,255);"/>
            </g>
            <g transform="matrix(0.484237,0,0,0.743546,532.689,485.772)">
                <path d="M1034.26,441.385C1034.26,441.385 1100.59,515.187 1134.69,629.477C1145.48,665.668 1151.99,705.732 1152.85,749.418C1153.35,774.617 1151.14,800.795 1146.92,828.249C1143.84,848.285 1139.2,868.85 1133.55,890.229C1125.77,919.643 1116.13,950.372 1101.99,982.496C1086.2,1018.36 1067.08,1055.67 1041.29,1094.93C1018.6,1129.47 993.258,1165.06 961.325,1202.04C955.34,1207.45 955.264,1216.31 961.155,1221.81C967.047,1227.31 976.689,1227.38 982.675,1221.96C1034.8,1185 1077.81,1148.69 1113.91,1111.25C1142.94,1081.14 1166.29,1050.88 1185.77,1020.7C1208.58,985.345 1225.14,950.219 1236.35,915.826C1244.79,889.926 1249.64,864.307 1252.13,839.547C1255.54,805.627 1254.55,773.162 1249.95,742.489C1242.28,691.349 1226.53,645.344 1205.92,605.253C1145.45,487.6 1053.74,422.615 1053.74,422.615C1048.1,417.677 1039.16,417.874 1033.79,423.053C1028.41,428.233 1028.63,436.447 1034.26,441.385L1034.26,441.385Z" style="fill:rgb(0,255,87);stroke:rgb(0,255,87);stroke-width:111.57px;"/>
            </g>
            <g transform="matrix(0.831589,0,0,1.30769,335.296,1.39707)">
                <path d="M1035.27,436.033C1035.27,436.033 1107.58,509.181 1143.95,626.467C1155.14,662.534 1162.64,702.683 1164.13,746.393C1165,771.888 1163.55,798.519 1159.81,826.283C1157.04,846.815 1152.77,867.919 1147.35,889.661C1139.82,919.887 1129.82,951.245 1115.56,983.718C1099.38,1020.58 1078.74,1058.72 1051.4,1098.24C1026.79,1133.81 998.057,1170.32 962.477,1207.74C958.782,1211.09 960.049,1215.71 965.305,1218.06C970.561,1220.41 977.828,1219.6 981.523,1216.26C1035.51,1173.85 1080.07,1132.22 1116.12,1090.82C1143.47,1059.4 1165.67,1028.37 1183.59,997.82C1203.46,963.943 1218.05,930.774 1227.63,898.525C1234.57,875.145 1238.71,852.226 1240.63,829.985C1246.05,767.072 1235.62,709.488 1217.47,658.947C1165.58,514.41 1052.74,427.967 1052.74,427.967C1049.24,424.901 1042.48,424.219 1037.66,426.445C1032.84,428.671 1031.77,432.967 1035.27,436.033L1035.27,436.033Z" style="fill:rgb(0,255,87);stroke:rgb(0,255,87);stroke-width:63.88px;"/>
            </g>
            <g transform="matrix(1.03949,0,0,1.84615,316.259,-483.218)">
                <path d="M1036.74,434.629C1036.74,434.629 1128.28,524.296 1160.79,665.625C1171.8,713.491 1175.75,767.22 1168.01,825.758C1165.28,846.381 1161.22,867.59 1155.79,889.396C1148.22,919.802 1137.9,951.312 1123.32,983.858C1106.7,1020.99 1085.22,1059.37 1056.99,1098.97C1031.42,1134.85 1001.19,1171.65 964.094,1209.23C961.377,1211.69 962.715,1214.92 967.078,1216.45C971.442,1217.98 977.19,1217.23 979.906,1214.77C1033.6,1171.09 1077.78,1128.2 1113.19,1085.9C1139.63,1054.31 1161.14,1023.21 1178.37,992.693C1197.25,959.243 1211.13,926.573 1220.24,894.877C1226.81,872.049 1230.79,849.712 1232.71,828.02C1238.12,766.744 1228.45,710.556 1211.46,661.026C1161.99,516.89 1051.26,429.371 1051.26,429.371C1048.69,427.113 1043.34,426.459 1039.33,427.91C1035.32,429.361 1034.16,432.372 1036.74,434.629L1036.74,434.629Z" style="fill:rgb(0,255,87);stroke:rgb(0,255,87);stroke-width:46.72px;"/>
            </g>
            <g transform="matrix(1.45528,0,0,2.32308,143.146,-821.249)">
                <path d="M1038.98,434.248C1038.98,434.248 1115.57,506.895 1156.07,624.62C1168.58,660.963 1177.57,701.575 1180.07,745.786C1181.53,771.662 1180.67,798.742 1177.14,826.943C1174.53,847.826 1170.32,869.299 1164.61,891.376C1156.68,922.012 1145.67,953.759 1130.28,986.526C1112.89,1023.55 1090.38,1061.83 1061.15,1101.25C1034.99,1136.54 1004.01,1172.74 966.531,1209.63C964.441,1211.52 965.194,1214.12 968.213,1215.43C971.231,1216.74 975.378,1216.26 977.469,1214.37C1029.14,1171.25 1071.61,1128.87 1105.7,1087.17C1131.43,1055.7 1152.4,1024.72 1169.21,994.345C1187.79,960.796 1201.42,928.041 1210.51,896.282C1217.08,873.297 1221.21,850.818 1223.33,828.989C1229.34,767.204 1220.36,710.563 1203.99,660.681C1156.88,517.184 1049.02,429.752 1049.02,429.752C1047.04,428.018 1043.18,427.616 1040.41,428.857C1037.64,430.097 1037,432.513 1038.98,434.248L1038.98,434.248Z" style="fill:rgb(249,0,255);stroke:rgb(249,0,255);stroke-width:36.11px;"/>
            </g>
        </g>
    </g>
</svg>
