<?xml version="1.0" encoding="UTF-8" standalone="no"?>
<!DOCTYPE svg PUBLIC "-//W3C//DTD SVG 1.1//EN" "http://www.w3.org/Graphics/SVG/1.1/DTD/svg11.dtd">
<svg width="100%" height="100%" viewBox="0 0 10240 2048" version="1.1" xmlns="http://www.w3.org/2000/svg" xmlns:xlink="http://www.w3.org/1999/xlink" xml:space="preserve" xmlns:serif="http://www.serif.com/" style="fill-rule:evenodd;clip-rule:evenodd;stroke-linejoin:round;stroke-miterlimit:2;">
    <g transform="matrix(1.53174,0,0,1.95326,-1204.53,-1817.93)">
        <g id="Layer1">
            <g>
                <text x="2640px" y="1800px" style="font-family:'HoeflerText-Black', 'Hoefler Text', serif;font-weight:700;font-size:1048px;">bamisoro</text>
                <path d="M2842.95,1046.97C2844.05,1046.26 2845.46,1045.46 2847.19,1044.59C2849.03,1043.66 2851.27,1042.64 2853.88,1041.52C2856.83,1040.26 2859.54,1039.35 2862.03,1038.77C2864.35,1038.23 2866.5,1037.97 2868.46,1037.97C2873.68,1037.97 2878.05,1038.41 2881.6,1039.25C2885.32,1040.13 2888.2,1041.46 2890.31,1043.14C2892.37,1044.79 2893.92,1046.55 2894.98,1048.4C2896.16,1050.44 2896.75,1052.6 2896.75,1054.87L2896.74,1055.08C2895.62,1069.23 2894.55,1084.59 2893.54,1101.13C2892.65,1115.58 2891.79,1130.95 2890.98,1147.22C2890.04,1166.13 2889.35,1183.08 2888.91,1198.09C2888.55,1210.78 2888.36,1222.08 2888.36,1231.98L2888.36,1367.41C2893.18,1362.07 2898.58,1357.1 2904.55,1352.5C2913.71,1345.44 2924.22,1339.25 2936.08,1333.94C2948.38,1328.43 2961.48,1324.33 2975.37,1321.64C2988.62,1319.07 3002.58,1317.79 3017.28,1317.79C3050.04,1317.79 3080.48,1323.05 3108.59,1333.55C3135.46,1343.59 3160.21,1358.42 3182.82,1378.08C3203.83,1396.34 3220.08,1418.96 3231.54,1445.96C3245.17,1478.09 3252.02,1516.45 3252.02,1561.06C3252.02,1593.65 3245.71,1625.15 3233.08,1655.56C3220.83,1685.1 3202.62,1713.6 3178.45,1741.08C3153.13,1769.86 3121.87,1791.25 3084.7,1805.28C3049.41,1818.6 3008.78,1825.29 2962.78,1825.29C2939.15,1825.29 2918.93,1823.59 2902.13,1820.22C2886.74,1817.14 2874.16,1812.64 2864.36,1806.8C2854.63,1801 2844.08,1796.66 2832.7,1793.81C2821.64,1791.04 2809.81,1789.65 2797.2,1789.65C2791.37,1789.65 2786.04,1790.19 2781.22,1791.27C2775.97,1792.45 2771.33,1794.29 2767.32,1796.8C2763.12,1799.43 2759.41,1802.87 2756.16,1807.12C2753.34,1810.8 2750.88,1815.07 2748.75,1819.93C2748.68,1820.08 2748.6,1820.24 2748.5,1820.38C2747.56,1821.8 2746.04,1823.14 2743.85,1824.33C2741.9,1825.39 2739.35,1826.36 2736.19,1827.21C2733.31,1827.98 2730.77,1828.54 2728.59,1828.91C2726.32,1829.3 2724.39,1829.48 2722.79,1829.48C2720.89,1829.48 2718.77,1829.27 2716.44,1828.83C2713.92,1828.36 2711.13,1827.62 2708.06,1826.6C2704.12,1825.29 2701.44,1823.81 2699.87,1822.34C2698.33,1820.89 2697.65,1819.37 2697.65,1817.82L2697.66,1817.62L2700.28,1777.84C2700.75,1769.99 2701.11,1761.21 2701.37,1751.52C2701.69,1739.7 2701.84,1726.52 2701.84,1711.97C2701.84,1711.97 2701.84,1239.32 2701.84,1239.32C2701.84,1226.04 2700.59,1214.95 2698.05,1206.08C2695.62,1197.62 2692.08,1191.25 2687.2,1187.02C2682.67,1183.1 2676.57,1179.83 2668.94,1177.17C2659.87,1174 2648.69,1171.72 2635.43,1170.28C2633.81,1170.2 2632.13,1169.64 2630.61,1168.28C2629.04,1166.88 2627.39,1164.15 2626,1159.98C2625,1156.98 2624.28,1154.26 2623.83,1151.82C2623.43,1149.7 2623.24,1147.77 2623.24,1146.05C2623.24,1144.3 2623.44,1142.32 2623.84,1140.09C2624.29,1137.59 2625.01,1134.77 2625.98,1131.64C2627.33,1127.33 2628.92,1124.47 2630.45,1122.98C2631.88,1121.58 2633.47,1120.95 2635.02,1120.8C2652.46,1116.71 2671.24,1111.52 2691.36,1105.25C2708.81,1099.81 2727.26,1093.56 2746.71,1086.48C2769.1,1078.34 2788.69,1070.79 2805.47,1063.83C2820.1,1057.76 2832.6,1052.14 2842.95,1046.97ZM2888.39,1054.79C2888.37,1053.49 2888.03,1052.26 2887.36,1051.09C2886.68,1049.91 2885.66,1048.79 2884.34,1047.74C2882.8,1046.5 2880.5,1045.71 2877.54,1045.19C2874.96,1044.74 2871.94,1044.53 2868.46,1044.53C2866.92,1044.53 2865.22,1044.81 2863.33,1045.33C2861.64,1045.79 2859.83,1046.44 2857.89,1047.27C2855.47,1048.31 2853.41,1049.25 2851.7,1050.11C2850.22,1050.86 2849.02,1051.53 2848.12,1052.13L2847.66,1052.4C2837.1,1057.67 2824.34,1063.42 2809.38,1069.62C2792.48,1076.63 2772.77,1084.23 2750.23,1092.43C2730.62,1099.56 2712.03,1105.86 2694.45,1111.34C2673.93,1117.74 2654.78,1123.02 2637,1127.18L2636.88,1127.21C2636.71,1127.39 2636.47,1127.69 2636.32,1127.93C2635.54,1129.16 2634.82,1130.92 2634.1,1133.2C2633.2,1136.1 2632.54,1138.7 2632.12,1141.01C2631.78,1142.89 2631.6,1144.57 2631.6,1146.05C2631.6,1147.82 2631.86,1149.84 2632.35,1152.11C2632.76,1154.01 2633.34,1156.08 2634.09,1158.32C2634.89,1160.73 2636.41,1163.19 2636.8,1163.81C2650.86,1165.35 2662.7,1167.82 2672.33,1171.17C2681.15,1174.25 2688.16,1178.08 2693.4,1182.62C2699.05,1187.52 2703.39,1194.84 2706.2,1204.64C2708.86,1213.9 2710.2,1225.46 2710.2,1239.32L2710.2,1711.97C2710.2,1726.57 2710.05,1739.8 2709.73,1751.66C2709.47,1761.41 2709.1,1770.24 2708.63,1778.15L2706.02,1817.84C2706.03,1818.03 2706.28,1818.15 2706.51,1818.33C2706.89,1818.62 2707.37,1818.91 2707.93,1819.2C2708.86,1819.67 2710,1820.12 2711.33,1820.56C2713.45,1821.27 2715.41,1821.82 2717.22,1822.22C2719.3,1822.68 2721.16,1822.92 2722.79,1822.92C2723.9,1822.92 2725.24,1822.78 2726.82,1822.51C2728.74,1822.18 2730.97,1821.68 2733.5,1821C2735.39,1820.5 2736.99,1819.95 2738.3,1819.34C2739.51,1818.77 2740.44,1818.2 2740.97,1817.51C2743.28,1812.3 2745.95,1807.71 2748.99,1803.75C2752.8,1798.77 2757.18,1794.75 2762.11,1791.67C2766.96,1788.64 2772.56,1786.4 2778.91,1784.97C2784.43,1783.73 2790.53,1783.1 2797.2,1783.1C2810.71,1783.1 2823.4,1784.59 2835.25,1787.57C2847.53,1790.65 2858.92,1795.32 2869.42,1801.58C2878.43,1806.96 2890.04,1811.03 2904.2,1813.87C2920.43,1817.12 2939.96,1818.73 2962.78,1818.73C3007.4,1818.73 3046.84,1812.3 3081.07,1799.37C3116.96,1785.82 3147.12,1765.14 3171.56,1737.36C3195.26,1710.42 3213.12,1682.48 3225.13,1653.54C3237.49,1623.78 3243.66,1592.95 3243.66,1561.06C3243.66,1517.26 3237,1479.58 3223.61,1448.03C3212.55,1421.96 3196.9,1400.1 3176.62,1382.47C3154.79,1363.5 3130.93,1349.16 3104.99,1339.47C3077.99,1329.38 3048.75,1324.34 3017.28,1324.34C3003.29,1324.34 2989.99,1325.56 2977.38,1328C2964.24,1330.55 2951.86,1334.42 2940.23,1339.63C2929.01,1344.65 2919.07,1350.5 2910.41,1357.17C2901.53,1364.02 2894.01,1371.73 2887.82,1380.32C2886.89,1381.61 2884.96,1382.25 2883.12,1381.87C2881.28,1381.5 2880,1380.19 2880,1378.7C2880,1378.7 2880,1231.98 2880,1231.98C2880,1222.04 2880.19,1210.69 2880.56,1197.95C2880.99,1182.9 2881.68,1165.91 2882.63,1146.97C2883.44,1130.67 2884.3,1115.29 2885.19,1100.81C2886.2,1084.28 2887.27,1068.94 2888.39,1054.79ZM3062.33,1565.25C3062.33,1534.21 3060.47,1507.48 3056.76,1485.07C3053.22,1463.65 3047.97,1446.13 3041.08,1432.51C3033.9,1418.34 3023.94,1407.68 3011.32,1400.45C2998.1,1392.88 2981.94,1389.05 2962.78,1389.05C2949.56,1389.05 2937.85,1391.17 2927.63,1395.37C2917.26,1399.63 2908.41,1406.04 2901.14,1414.62C2894.14,1422.87 2888.88,1431.49 2885.36,1440.46C2881.79,1449.55 2880,1459.01 2880,1468.83C2880,1468.83 2880,1701.49 2880,1701.49C2880,1711.14 2881.17,1719.98 2883.48,1728.01C2886.2,1737.45 2890.51,1745.79 2896.38,1753.03C2902.33,1760.37 2910.17,1765.78 2919.87,1769.26C2928.48,1772.36 2938.59,1773.93 2950.21,1773.93C2969.81,1773.93 2986.61,1769.45 3000.64,1760.55C3017.91,1749.59 3031.01,1731.8 3039.65,1707.07C3047.47,1684.7 3053.27,1661.25 3057.05,1636.72C3060.57,1613.84 3062.33,1590.01 3062.33,1565.25ZM3053.97,1565.25C3053.97,1589.74 3052.23,1613.3 3048.75,1635.93C3045.02,1660.14 3039.3,1683.27 3031.59,1705.34C3025.06,1724.02 3015.97,1738.54 3004.2,1748.85C2990.07,1761.21 2972.07,1767.38 2950.21,1767.38C2939.93,1767.38 2930.97,1766.04 2923.35,1763.3C2915.12,1760.34 2908.48,1755.74 2903.43,1749.51C2898.05,1742.87 2894.13,1735.22 2891.64,1726.57C2889.45,1718.97 2888.36,1710.61 2888.36,1701.49L2888.36,1468.83C2888.36,1459.68 2890.02,1450.86 2893.35,1442.39C2896.64,1434.01 2901.56,1425.96 2908.1,1418.25C2914.54,1410.65 2922.33,1404.95 2931.51,1401.18C2940.59,1397.45 2951.02,1395.61 2962.78,1395.61C2979.98,1395.61 2994.53,1398.95 3006.39,1405.74C3017.86,1412.31 3026.79,1422.06 3033.31,1434.93C3040,1448.14 3045.03,1465.14 3048.47,1485.91C3052.14,1508.09 3053.97,1534.54 3053.97,1565.25ZM2635.99,1127.31L2635.81,1127.32C2635.87,1127.32 2635.93,1127.32 2635.99,1127.31Z"/>
                <path d="M3592.72,1529.22L3595.79,1429.01C3595.79,1418.69 3595.07,1410.07 3593.61,1403.15C3592.17,1396.31 3590.08,1391.22 3587.12,1387.93C3584.18,1384.67 3580.17,1382.3 3575.1,1380.81C3570.57,1379.48 3565.23,1378.84 3559.1,1378.84C3552.2,1378.84 3545.59,1379.49 3539.26,1380.79C3532.83,1382.11 3526.69,1384.11 3520.85,1386.78C3515.87,1389.06 3511.93,1392.47 3508.99,1396.99C3505.32,1402.62 3503.19,1409.87 3502.48,1418.74C3500.7,1440.88 3497.46,1459.59 3492.78,1474.86C3488.11,1490.09 3481.99,1501.96 3474.51,1510.51C3466.52,1519.65 3456.55,1526.42 3444.64,1530.85C3433.51,1534.99 3420.66,1537.09 3406.09,1537.09C3392.86,1537.09 3381.16,1535.19 3370.97,1531.46C3360.09,1527.47 3350.91,1521.38 3343.47,1513.18C3336.15,1505.1 3330.72,1496.21 3327.18,1486.48C3323.91,1477.47 3322.26,1467.75 3322.26,1457.3C3322.26,1440.7 3328.43,1424.7 3340.82,1409.32C3355.22,1391.44 3378.11,1374.36 3409.56,1358.15C3438.65,1343.16 3469.5,1331.95 3502.1,1324.52C3534.08,1317.24 3567.75,1313.59 3603.11,1313.59C3632.86,1313.59 3658.31,1317 3679.48,1323.74C3705.42,1331.99 3725,1345.24 3738.27,1363.45C3749,1378.19 3757.12,1395.31 3762.58,1414.82C3769.2,1438.42 3771.94,1465.54 3770.78,1496.15C3770.78,1496.15 3765.54,1678.51 3765.54,1678.58C3764.87,1690.17 3765.32,1699.79 3766.9,1707.44C3768.46,1714.98 3771.04,1720.51 3774.95,1723.93C3778.31,1726.86 3781.59,1729.18 3784.83,1730.84C3788.63,1732.8 3792.32,1733.84 3795.94,1733.84C3798.76,1733.84 3801.5,1733.61 3804.17,1733.14C3806.84,1732.67 3809.44,1731.96 3811.96,1731.02C3814.51,1730.06 3816.9,1728.95 3819.14,1727.67C3821.38,1726.39 3823.47,1724.95 3825.39,1723.35C3825.44,1723.3 3825.49,1723.26 3825.54,1723.22C3828.16,1721.26 3831.63,1720.82 3835.94,1723.02C3838.66,1724.41 3842.06,1727.22 3845.99,1731.56C3849.3,1735.22 3851.83,1738.84 3853.6,1742.42C3855.69,1746.65 3856.72,1750.82 3856.72,1754.94C3856.72,1755.22 3856.67,1755.49 3856.58,1755.77C3856.3,1756.6 3856.08,1757.37 3855.93,1758.08C3855.76,1758.87 3855.67,1759.56 3855.67,1760.18C3855.67,1761.33 3855.3,1762.49 3854.51,1763.65C3853.85,1764.61 3852.86,1765.59 3851.5,1766.56C3844.21,1774.91 3834.82,1782.47 3823.33,1789.21C3813.26,1795.12 3801.55,1800.42 3788.22,1805.09C3774.13,1810.02 3759.87,1813.73 3745.43,1816.22C3730.66,1818.77 3715.71,1820.05 3700.58,1820.05C3686.42,1820.05 3673.55,1818.51 3661.95,1815.46C3649.1,1812.09 3637.8,1806.86 3628.05,1799.79C3618.43,1792.81 3610.52,1784.6 3604.33,1775.17C3600.19,1768.86 3596.82,1762 3594.23,1754.58C3587.81,1763.31 3580.78,1771.14 3573.13,1778.07C3562.2,1787.99 3550.02,1796.06 3536.6,1802.3C3523.09,1808.58 3507.91,1813.2 3491.06,1816.15C3476.26,1818.74 3460.16,1820.05 3442.77,1820.05C3422.93,1820.05 3404.57,1817.84 3387.69,1813.43C3369.78,1808.77 3353.53,1801.63 3338.95,1792.03C3323.52,1781.88 3312.23,1768.89 3305.11,1753.06C3299.09,1739.67 3296.06,1724.23 3296.06,1706.73C3296.06,1685.14 3302.14,1665.61 3314.26,1648.12C3325.89,1631.35 3343.09,1616.45 3365.91,1603.47C3388.07,1590.85 3417.48,1578.47 3454.15,1566.34C3492.4,1553.7 3538.59,1541.32 3592.72,1529.22ZM3830.88,1728.33C3828.76,1730.03 3826.49,1731.58 3824.06,1732.97C3821.41,1734.48 3818.58,1735.8 3815.56,1736.93C3812.47,1738.09 3809.28,1738.96 3805.99,1739.54C3802.74,1740.11 3799.39,1740.4 3795.94,1740.4C3791.72,1740.4 3787.4,1739.49 3783,1737.62C3778.36,1735.64 3773.58,1732.55 3768.73,1728.3C3764,1724.17 3760.54,1717.6 3758.65,1708.5C3756.99,1700.48 3756.49,1690.41 3757.18,1678.36C3757.18,1678.36 3762.42,1496.01 3762.42,1495.98C3763.35,1471.46 3761.75,1449.24 3757.6,1429.31C3752.54,1405 3743.69,1384.12 3731.01,1366.71C3718.68,1349.77 3700.44,1337.48 3676.34,1329.81C3656.04,1323.35 3631.63,1320.15 3603.11,1320.15C3568.57,1320.15 3535.67,1323.7 3504.43,1330.82C3472.62,1338.06 3442.53,1349 3414.15,1363.63C3383.87,1379.23 3361.75,1395.6 3347.89,1412.82C3336.39,1427.09 3330.62,1441.91 3330.62,1457.3C3330.62,1467.1 3332.15,1476.23 3335.22,1484.69C3338.49,1493.68 3343.51,1501.91 3350.28,1509.38C3356.85,1516.61 3364.91,1522 3374.51,1525.52C3383.67,1528.88 3394.2,1530.53 3406.09,1530.53C3419.3,1530.53 3430.96,1528.68 3441.05,1524.93C3451.66,1520.98 3460.5,1514.93 3467.62,1506.8C3474.63,1498.79 3480.27,1487.62 3484.65,1473.33C3489.23,1458.36 3492.39,1440.02 3494.14,1418.32C3494.93,1408.4 3497.44,1400.3 3501.54,1394.01C3505.27,1388.29 3510.33,1384 3516.64,1381.11C3523.15,1378.14 3529.98,1375.92 3537.14,1374.45C3544.14,1373.01 3551.46,1372.28 3559.1,1372.28C3566.36,1372.28 3572.67,1373.1 3578.04,1374.68C3584.76,1376.65 3590.05,1379.82 3593.95,1384.15C3597.45,1388.04 3600.16,1394 3601.86,1402.08C3603.38,1409.29 3604.15,1418.26 3604.15,1429.01C3604.15,1429.03 3604.15,1429.06 3604.15,1429.09L3601,1531.79C3600.96,1533.23 3599.73,1534.47 3597.96,1534.87C3542.93,1547.1 3496.08,1559.6 3457.4,1572.38C3421.43,1584.28 3392.56,1596.4 3370.82,1608.77C3349.1,1621.14 3332.68,1635.29 3321.61,1651.25C3310.14,1667.8 3304.42,1686.3 3304.42,1706.73C3304.42,1723.4 3307.26,1738.12 3313,1750.88C3319.59,1765.55 3330.03,1777.6 3344.32,1787.01C3358.09,1796.07 3373.42,1802.81 3390.33,1807.21C3406.39,1811.4 3423.88,1813.49 3442.77,1813.49C3459.51,1813.49 3475,1812.25 3489.24,1809.75C3505.18,1806.96 3519.55,1802.6 3532.34,1796.66C3545,1790.77 3556.49,1783.14 3566.81,1773.79C3576.19,1765.28 3584.6,1755.35 3592.06,1744C3592.87,1742.77 3594.59,1742.07 3596.35,1742.26C3598.11,1742.45 3599.52,1743.49 3599.87,1744.85C3602.47,1754.93 3606.43,1764.04 3611.77,1772.17C3617.5,1780.91 3624.81,1788.51 3633.72,1794.97C3642.6,1801.42 3652.9,1806.17 3664.6,1809.25C3675.4,1812.08 3687.4,1813.49 3700.58,1813.49C3715.1,1813.49 3729.46,1812.27 3743.64,1809.82C3757.53,1807.42 3771.25,1803.85 3784.81,1799.1C3797.53,1794.65 3808.71,1789.61 3818.32,1783.96C3829.19,1777.59 3838.05,1770.44 3844.88,1762.53C3845.1,1762.28 3845.35,1762.06 3845.64,1761.87C3846.11,1761.56 3846.51,1761.24 3846.82,1760.93C3847.08,1760.66 3847.31,1760.44 3847.31,1760.18C3847.31,1759.4 3847.39,1758.54 3847.57,1757.59C3847.74,1756.66 3848,1755.65 3848.35,1754.54C3848.29,1751.33 3847.43,1748.08 3845.8,1744.79C3844.27,1741.67 3842.05,1738.53 3839.17,1735.35C3836.82,1732.75 3834.75,1730.79 3832.93,1729.48C3832.29,1729.02 3831.35,1728.55 3830.88,1728.33ZM3598.91,1570.56C3598.94,1569.51 3598.32,1568.52 3597.26,1567.88C3596.19,1567.24 3594.8,1567.05 3593.52,1567.35C3570.64,1572.78 3551.26,1579.28 3535.37,1586.82C3521.94,1593.2 3510.98,1600.33 3502.46,1608.19C3492.13,1617.73 3484.6,1629.55 3479.92,1643.66C3476.13,1655.12 3474.22,1668.1 3474.22,1682.62C3474.22,1690.92 3475.26,1698.46 3477.32,1705.24C3479.79,1713.38 3483.74,1720.45 3489.13,1726.43C3494.31,1732.18 3500.51,1736.47 3507.71,1739.32C3514.78,1742.12 3522.82,1743.54 3531.85,1743.54C3539.71,1743.54 3547.21,1742.27 3554.35,1739.72C3560.87,1737.39 3567.09,1734 3573,1729.52C3579.01,1724.97 3583.97,1718.46 3587.76,1709.94C3591.6,1701.31 3594.28,1690.56 3595.75,1677.68L3595.76,1677.46L3598.91,1570.56ZM3590.41,1574.98C3570.68,1579.94 3553.77,1585.75 3539.7,1592.43C3527.11,1598.4 3516.82,1605.07 3508.83,1612.43C3499.26,1621.27 3492.34,1632.23 3488.01,1645.31C3484.38,1656.28 3482.58,1668.72 3482.58,1682.62C3482.58,1690.37 3483.53,1697.4 3485.45,1703.72C3487.66,1710.99 3491.15,1717.31 3495.96,1722.65C3500.29,1727.46 3505.45,1731.08 3511.48,1733.47C3517.44,1735.83 3524.23,1736.99 3531.85,1736.99C3538.5,1736.99 3544.85,1735.91 3550.89,1733.75C3556.59,1731.72 3562.02,1728.73 3567.2,1724.81C3572.4,1720.87 3576.58,1715.17 3579.87,1707.78C3583.51,1699.6 3586.01,1689.4 3587.41,1677.2L3590.41,1574.98Z"/>
                <path d="M4059.72,1317.33C4060.81,1316.62 4062.21,1315.84 4063.92,1314.98C4065.76,1314.05 4067.99,1313.02 4070.61,1311.9C4073.55,1310.64 4076.27,1309.73 4078.76,1309.15C4081.08,1308.61 4083.23,1308.35 4085.19,1308.35C4090.21,1308.35 4094.5,1308.83 4098.05,1309.73C4101.43,1310.59 4104.19,1311.83 4106.37,1313.42C4108.6,1315.04 4110.29,1316.77 4111.45,1318.59C4112.8,1320.69 4113.48,1322.91 4113.48,1325.26C4113.48,1325.3 4113.48,1325.35 4113.47,1325.39L4109.15,1408.38C4117.77,1393.96 4127.2,1381.44 4137.43,1370.79C4148.95,1358.81 4161.5,1349.2 4175.06,1341.94C4189.3,1334.31 4203.54,1328.5 4217.78,1324.49C4233.67,1320.02 4249.56,1317.79 4265.45,1317.79C4285.11,1317.79 4304.03,1320.29 4322.2,1325.28C4339.74,1330.11 4356.6,1337.25 4372.75,1346.74C4389.55,1356.6 4403.46,1368.32 4414.49,1381.91C4423.16,1392.59 4430.05,1404.43 4435.15,1417.43C4443.59,1403.6 4452.77,1391.28 4462.67,1380.48C4476.76,1365.12 4492.32,1352.81 4509.34,1343.53C4524.86,1335.06 4540.98,1328.69 4557.71,1324.4C4574.93,1319.99 4592.79,1317.79 4611.29,1317.79C4637.89,1317.79 4661.5,1321.88 4682.14,1330.03C4703.31,1338.39 4721.38,1351.01 4736.29,1367.93C4751.03,1384.65 4762.04,1402.5 4769.33,1421.49C4776.44,1440.03 4780,1459.65 4780,1480.36L4780,1671.1C4780,1687.38 4780.95,1700.98 4782.87,1711.91C4784.86,1723.27 4787.83,1731.64 4791.97,1736.99C4795.68,1741.77 4801.85,1745.63 4810.36,1748.68C4819.89,1752.1 4832.24,1754.47 4847.41,1755.86C4849.14,1755.93 4850.99,1756.58 4852.59,1758.28C4854.08,1759.85 4855.61,1762.83 4856.93,1767.3C4857.89,1770.57 4858.59,1773.48 4859.04,1776.03C4859.45,1778.37 4859.65,1780.42 4859.65,1782.18C4859.65,1784.59 4859.39,1787.22 4858.84,1790.06C4858.39,1792.43 4857.75,1794.96 4856.91,1797.64C4855.56,1801.95 4853.98,1804.81 4852.45,1806.3C4850.77,1807.94 4848.87,1808.52 4847.09,1808.52C4835.47,1808.52 4822.91,1808.27 4809.39,1807.77C4797.6,1807.33 4785.07,1806.7 4771.83,1805.89C4758.26,1805.05 4745.13,1804.41 4732.44,1803.98C4718.79,1803.51 4705.65,1803.28 4693.03,1803.28C4680.9,1803.28 4668.81,1803.49 4656.77,1803.93C4644.66,1804.36 4632.6,1805.01 4620.58,1805.88C4608.9,1806.73 4597.59,1807.37 4586.65,1807.81C4574.88,1808.28 4563.53,1808.52 4552.6,1808.52C4550.86,1808.52 4549.04,1807.98 4547.4,1806.51C4545.83,1805.11 4544.18,1802.38 4542.79,1798.21C4541.9,1795.53 4541.22,1792.89 4540.77,1790.3C4540.28,1787.54 4540.04,1784.84 4540.04,1782.18C4540.04,1780.44 4540.23,1778.45 4540.64,1776.22C4541.09,1773.73 4541.8,1770.91 4542.78,1767.78C4543.86,1764.32 4545.03,1761.71 4546.23,1759.94C4547.69,1757.81 4549.4,1756.63 4550.97,1756.11C4551.26,1756.01 4551.56,1755.94 4551.88,1755.9C4560.38,1754.73 4567.45,1752.83 4573.05,1750.14C4579.55,1747.03 4584.01,1742.86 4586.39,1737.6C4588.88,1732.08 4590.67,1723.43 4591.85,1711.64C4592.94,1700.74 4593.48,1687.23 4593.48,1671.1C4593.48,1671.1 4593.48,1505.51 4593.48,1505.51C4593.48,1488.35 4592.38,1473.55 4590.16,1461.1C4588.13,1449.68 4585.17,1440.27 4581.23,1432.89C4577.33,1425.57 4571.73,1420.09 4564.35,1416.5C4557.17,1413.02 4548.36,1411.33 4537.93,1411.33C4526.87,1411.33 4517.16,1412.51 4508.79,1414.92C4499.31,1417.65 4491.59,1421.97 4485.67,1427.89C4480.12,1433.43 4474.27,1440.54 4468.1,1449.2C4461.35,1458.68 4454.23,1470 4446.74,1483.16L4446.74,1671.1C4446.74,1686.97 4447.35,1700.38 4448.59,1711.32C4449.86,1722.59 4451.76,1731.18 4454.37,1737.1C4456.85,1742.71 4461.11,1747.1 4467.19,1750.25C4472.7,1753.11 4479.66,1754.95 4488.01,1755.86C4489.72,1755.94 4491.54,1756.6 4493.13,1758.28C4494.61,1759.85 4496.15,1762.83 4497.46,1767.3C4498.42,1770.57 4499.12,1773.48 4499.57,1776.03C4499.99,1778.37 4500.19,1780.42 4500.19,1782.18C4500.19,1784.84 4499.95,1787.54 4499.46,1790.3C4499,1792.89 4498.33,1795.53 4497.43,1798.21C4496.04,1802.38 4494.4,1805.11 4492.82,1806.51C4491.18,1807.98 4489.36,1808.52 4487.62,1808.52C4477.38,1808.52 4467.68,1808.32 4458.52,1807.94C4448.13,1807.5 4438.43,1806.81 4429.43,1805.87C4420.39,1804.93 4410.22,1804.24 4398.92,1803.82C4389.45,1803.46 4379.2,1803.28 4368.15,1803.28C4355.64,1803.28 4342.77,1803.51 4329.53,1803.97C4316.99,1804.4 4304.13,1805.04 4290.94,1805.89C4278.16,1806.71 4266.08,1807.33 4254.68,1807.77C4241.65,1808.27 4229.52,1808.52 4218.29,1808.52C4216.51,1808.52 4214.61,1807.94 4212.93,1806.3C4211.4,1804.81 4209.81,1801.95 4208.46,1797.64C4207.63,1794.96 4206.98,1792.43 4206.53,1790.06C4205.99,1787.22 4205.72,1784.59 4205.72,1782.18C4205.72,1780.44 4205.92,1778.45 4206.32,1776.22C4206.77,1773.73 4207.49,1770.91 4208.46,1767.78C4209.55,1764.32 4210.72,1761.71 4211.92,1759.94C4213.37,1757.81 4215.09,1756.63 4216.65,1756.11C4216.94,1756.01 4217.25,1755.94 4217.56,1755.9C4226.11,1754.72 4233.23,1752.81 4238.93,1750.11C4245.5,1746.98 4250.08,1742.8 4252.63,1737.53C4255.29,1732.03 4257.2,1723.4 4258.46,1711.66C4259.64,1700.76 4260.22,1687.24 4260.22,1671.1L4260.22,1505.51C4260.22,1488.23 4258.73,1473.35 4255.72,1460.86C4253.03,1449.69 4249.14,1440.47 4243.98,1433.22C4238.74,1425.85 4232.03,1420.32 4223.81,1416.67C4215.72,1413.08 4206.19,1411.33 4195.23,1411.33C4185.07,1411.33 4176.01,1413.04 4168.08,1416.52C4160.27,1419.94 4153.56,1425.07 4147.9,1431.85C4142.34,1438.53 4136.81,1446.62 4131.32,1456.1C4124.97,1467.06 4118.68,1479.86 4112.43,1494.52L4112.43,1671.1C4112.43,1686.98 4113.08,1700.39 4114.4,1711.34C4115.75,1722.57 4117.78,1731.14 4120.55,1737.03C4123.2,1742.65 4127.59,1747.05 4133.75,1750.22C4139.34,1753.09 4146.35,1754.95 4154.75,1755.86C4156.45,1755.94 4158.28,1756.6 4159.87,1758.28C4161.35,1759.85 4162.88,1762.83 4164.2,1767.3C4165.16,1770.57 4165.86,1773.48 4166.31,1776.03C4166.72,1778.37 4166.92,1780.42 4166.92,1782.18C4166.92,1784.59 4166.66,1787.22 4166.12,1790.06C4165.66,1792.43 4165.02,1794.96 4164.18,1797.64C4162.83,1801.95 4161.25,1804.81 4159.72,1806.3C4158.04,1807.94 4156.14,1808.52 4154.36,1808.52C4143.16,1808.52 4131.64,1808.29 4119.79,1807.82C4108.6,1807.38 4097.11,1806.74 4085.33,1805.88C4073.31,1805.01 4061.25,1804.36 4049.15,1803.93C4037.1,1803.49 4025.01,1803.28 4012.88,1803.28C4000.5,1803.28 3987.45,1803.52 3973.73,1803.99C3961.24,1804.43 3948.2,1805.06 3934.6,1805.89C3921.35,1806.7 3908.92,1807.32 3897.31,1807.75C3883.71,1808.26 3871.23,1808.52 3859.87,1808.52C3858.13,1808.52 3856.32,1807.98 3854.68,1806.51C3853.1,1805.11 3851.45,1802.38 3850.06,1798.21C3849.17,1795.53 3848.49,1792.89 3848.04,1790.3C3847.55,1787.54 3847.31,1784.84 3847.31,1782.18C3847.31,1780.44 3847.5,1778.45 3847.91,1776.22C3848.36,1773.73 3849.07,1770.91 3850.05,1767.78C3851.13,1764.32 3852.31,1761.71 3853.51,1759.94C3854.96,1757.81 3856.67,1756.63 3858.24,1756.11L3859.27,1755.88C3874.35,1754.17 3886.61,1751.66 3896.06,1748.3C3904.69,1745.23 3910.89,1741.5 3914.49,1736.96C3918.51,1731.89 3921.35,1723.53 3923.25,1711.91C3925.03,1701.05 3925.91,1687.45 3925.91,1671.1C3925.91,1671.1 3925.91,1505.51 3925.91,1505.51C3925.91,1492.38 3925.17,1481.44 3923.69,1472.68C3922.14,1463.53 3919.84,1456.86 3916.58,1452.75C3913.68,1449.08 3908.71,1446.09 3901.82,1443.63C3894.13,1440.89 3884.14,1438.86 3871.86,1437.49C3871.5,1437.45 3871.15,1437.38 3870.81,1437.27C3869.27,1436.75 3867.61,1435.64 3866.18,1433.67C3864.95,1431.98 3863.75,1429.49 3862.64,1426.17C3861.64,1423.18 3860.92,1420.45 3860.47,1418.01C3860.08,1415.89 3859.88,1413.97 3859.88,1412.24C3859.88,1410.49 3860.08,1408.51 3860.48,1406.28C3860.93,1403.78 3861.65,1400.97 3862.62,1397.84C3863.97,1393.52 3865.56,1390.66 3867.09,1389.17C3868.51,1387.78 3870.1,1387.15 3871.63,1387C3882.4,1384.37 3895.08,1380.68 3909.66,1375.91C3926.04,1370.56 3944.82,1363.87 3966,1355.84C3987.57,1347.66 4006.56,1340.17 4022.97,1333.38C4037.15,1327.51 4049.4,1322.16 4059.72,1317.33ZM4105.11,1325.21C4105.11,1323.92 4104.73,1322.69 4103.99,1321.54C4103.24,1320.37 4102.12,1319.27 4100.69,1318.23C4099,1317 4096.72,1316.16 4093.9,1315.62C4091.39,1315.14 4088.48,1314.91 4085.19,1314.91C4083.65,1314.91 4081.94,1315.19 4080.06,1315.71C4078.37,1316.17 4076.56,1316.82 4074.62,1317.65C4072.2,1318.69 4070.14,1319.64 4068.43,1320.5C4066.94,1321.24 4065.75,1321.91 4064.84,1322.51L4064.28,1322.83C4053.8,1327.74 4041.33,1333.19 4026.87,1339.18C4010.38,1346 3991.31,1353.52 3969.64,1361.74C3948.3,1369.84 3929.38,1376.58 3912.87,1381.97C3897.82,1386.88 3884.75,1390.68 3873.68,1393.36L3873.52,1393.4C3873.35,1393.59 3873.11,1393.88 3872.95,1394.12C3872.18,1395.36 3871.46,1397.12 3870.74,1399.4C3869.84,1402.29 3869.18,1404.89 3868.76,1407.2C3868.42,1409.08 3868.24,1410.76 3868.24,1412.24C3868.24,1414.01 3868.5,1416.03 3868.99,1418.3C3869.4,1420.2 3869.98,1422.27 3870.73,1424.51C3871.32,1426.27 3871.92,1427.76 3872.55,1428.95C3873.01,1429.84 3873.77,1430.75 3874.09,1431.12C3886.83,1432.59 3897.22,1434.79 3905.29,1437.67C3913.95,1440.76 3920.04,1444.68 3923.68,1449.29C3927.38,1453.95 3930.22,1461.45 3931.97,1471.82C3933.5,1480.8 3934.27,1492.04 3934.27,1505.51L3934.27,1671.1C3934.27,1687.78 3933.35,1701.67 3931.54,1712.75C3929.43,1725.6 3926.04,1734.81 3921.59,1740.42C3917.24,1745.9 3909.93,1750.57 3899.51,1754.27C3889.71,1757.76 3877.07,1760.43 3861.56,1762.25C3861.23,1762.65 3860.46,1763.65 3859.98,1764.62C3859.35,1765.89 3858.75,1767.47 3858.17,1769.34C3857.26,1772.23 3856.6,1774.83 3856.18,1777.14C3855.84,1779.03 3855.67,1780.71 3855.67,1782.18C3855.67,1784.55 3855.89,1786.95 3856.32,1789.4C3856.73,1791.74 3857.34,1794.13 3858.15,1796.55C3858.93,1798.87 3860.36,1801.24 3860.81,1801.96C3871.79,1801.95 3883.83,1801.7 3896.91,1801.2C3908.44,1800.77 3920.79,1800.15 3933.96,1799.35C3947.65,1798.52 3960.78,1797.88 3973.36,1797.44C3987.21,1796.96 4000.38,1796.72 4012.88,1796.72C4025.14,1796.72 4037.36,1796.94 4049.53,1797.38C4061.76,1797.82 4073.95,1798.48 4086.1,1799.36C4097.76,1800.2 4109.13,1800.84 4120.21,1801.27C4131.57,1801.72 4142.63,1801.95 4153.39,1801.96C4153.54,1801.78 4153.73,1801.55 4153.85,1801.35C4154.63,1800.12 4155.35,1798.36 4156.06,1796.08C4156.84,1793.61 4157.43,1791.28 4157.85,1789.09C4158.32,1786.6 4158.56,1784.3 4158.56,1782.18C4158.56,1780.68 4158.38,1778.92 4158.03,1776.92C4157.61,1774.54 4156.95,1771.83 4156.05,1768.77C4155.34,1766.35 4154.61,1764.47 4153.83,1763.14C4153.66,1762.85 4153.42,1762.52 4153.26,1762.32C4143.63,1761.24 4135.61,1759.01 4129.17,1755.7C4121.5,1751.76 4116.01,1746.3 4112.71,1739.3C4109.76,1733.02 4107.52,1723.91 4106.08,1711.95C4104.74,1700.84 4104.07,1687.22 4104.07,1671.1L4104.07,1493.98L4104.28,1492.95C4110.7,1477.84 4117.18,1464.65 4123.7,1453.39C4129.4,1443.56 4135.14,1435.19 4140.9,1428.26C4147.36,1420.52 4155.08,1414.7 4164,1410.79C4173.13,1406.79 4183.53,1404.77 4195.23,1404.77C4207.78,1404.77 4218.67,1406.86 4227.93,1410.96C4237.42,1415.18 4245.23,1421.52 4251.28,1430.03C4256.81,1437.8 4261.05,1447.67 4263.93,1459.65C4267.02,1472.47 4268.58,1487.76 4268.58,1505.51C4268.58,1505.51 4268.58,1671.1 4268.58,1671.1C4268.58,1687.46 4267.98,1701.16 4266.79,1712.21C4265.44,1724.77 4263.29,1733.98 4260.45,1739.86C4257.84,1745.24 4253.58,1749.74 4247.66,1753.35C4240.77,1757.54 4231.57,1760.53 4220,1762.22C4219.69,1762.6 4218.89,1763.62 4218.4,1764.62C4217.77,1765.89 4217.17,1767.47 4216.58,1769.34C4215.68,1772.23 4215.02,1774.83 4214.6,1777.14C4214.26,1779.03 4214.08,1780.71 4214.08,1782.18C4214.08,1784.3 4214.32,1786.6 4214.8,1789.09C4215.22,1791.28 4215.81,1793.61 4216.58,1796.08C4217.3,1798.36 4218.02,1800.12 4218.8,1801.35C4218.92,1801.55 4219.11,1801.78 4219.26,1801.96C4230.09,1801.95 4241.77,1801.7 4254.27,1801.22C4265.59,1800.79 4277.58,1800.17 4290.26,1799.35C4303.56,1798.5 4316.52,1797.86 4329.16,1797.42C4342.53,1796.95 4355.52,1796.72 4368.15,1796.72C4379.34,1796.72 4389.73,1796.9 4399.33,1797.27C4410.88,1797.71 4421.29,1798.41 4430.53,1799.37C4439.33,1800.29 4448.81,1800.96 4458.97,1801.39C4467.71,1801.76 4476.95,1801.95 4486.69,1801.96C4487.14,1801.24 4488.57,1798.87 4489.34,1796.55C4490.15,1794.13 4490.76,1791.74 4491.18,1789.4C4491.61,1786.95 4491.83,1784.55 4491.83,1782.18C4491.83,1780.68 4491.65,1778.92 4491.29,1776.92C4490.87,1774.54 4490.21,1771.83 4489.32,1768.77C4488.6,1766.35 4487.88,1764.47 4487.1,1763.14C4486.92,1762.85 4486.68,1762.52 4486.52,1762.32C4476.91,1761.24 4468.95,1759.02 4462.59,1755.72C4454.96,1751.77 4449.58,1746.28 4446.47,1739.24C4443.7,1732.97 4441.61,1723.85 4440.26,1711.9C4439.01,1700.8 4438.38,1687.2 4438.38,1671.1L4438.38,1482.46C4438.38,1482 4438.5,1481.54 4438.74,1481.12C4446.48,1467.49 4453.84,1455.78 4460.81,1446C4467.22,1437 4473.32,1429.61 4479.1,1423.84C4485.97,1416.97 4494.9,1411.94 4505.91,1408.76C4515.1,1406.12 4525.77,1404.77 4537.93,1404.77C4550.11,1404.77 4560.37,1406.86 4568.75,1410.93C4577.54,1415.2 4584.3,1421.66 4588.94,1430.36C4593.11,1438.17 4596.29,1448.11 4598.44,1460.19C4600.71,1472.89 4601.84,1488 4601.84,1505.51L4601.84,1671.1C4601.84,1687.43 4601.29,1701.12 4600.18,1712.16C4598.92,1724.71 4596.92,1733.91 4594.27,1739.79C4591.82,1745.21 4587.66,1749.74 4581.78,1753.36C4575,1757.54 4565.86,1760.53 4554.32,1762.22C4554,1762.6 4553.2,1763.62 4552.71,1764.62C4552.08,1765.89 4551.48,1767.47 4550.9,1769.34C4549.99,1772.23 4549.33,1774.83 4548.91,1777.14C4548.57,1779.03 4548.4,1780.71 4548.4,1782.18C4548.4,1784.55 4548.61,1786.95 4549.05,1789.4C4549.46,1791.74 4550.07,1794.13 4550.88,1796.55C4551.65,1798.87 4553.08,1801.24 4553.54,1801.96C4564.04,1801.95 4574.93,1801.72 4586.22,1801.26C4597.06,1800.83 4608.25,1800.19 4619.81,1799.36C4631.96,1798.48 4644.15,1797.82 4656.38,1797.38C4668.56,1796.94 4680.77,1796.72 4693.03,1796.72C4705.77,1796.72 4719.03,1796.96 4732.81,1797.43C4745.59,1797.87 4758.81,1798.51 4772.48,1799.35C4785.64,1800.16 4798.07,1800.79 4809.79,1801.22C4822.78,1801.7 4834.9,1801.95 4846.12,1801.96C4846.27,1801.78 4846.45,1801.55 4846.58,1801.35C4847.36,1800.12 4848.08,1798.36 4848.79,1796.08C4849.56,1793.61 4850.16,1791.28 4850.58,1789.09C4851.05,1786.6 4851.29,1784.3 4851.29,1782.18C4851.29,1780.68 4851.11,1778.92 4850.76,1776.92C4850.34,1774.54 4849.68,1771.83 4848.78,1768.77C4848.07,1766.35 4847.34,1764.47 4846.56,1763.14C4846.39,1762.85 4846.15,1762.53 4845.99,1762.33C4830,1760.84 4816.97,1758.26 4806.89,1754.64C4796.61,1750.96 4789.3,1746.17 4784.83,1740.39C4780.26,1734.5 4776.78,1725.32 4774.59,1712.81C4772.63,1701.64 4771.64,1687.74 4771.64,1671.1C4771.64,1671.1 4771.64,1480.36 4771.64,1480.36C4771.64,1460.32 4768.21,1441.32 4761.32,1423.38C4754.29,1405.04 4743.65,1387.8 4729.42,1371.66C4715.35,1355.7 4698.35,1343.77 4678.38,1335.89C4658.84,1328.17 4636.47,1324.34 4611.29,1324.34C4593.68,1324.34 4576.69,1326.44 4560.31,1330.64C4544.33,1334.73 4528.93,1340.82 4514.11,1348.91C4497.82,1357.8 4482.94,1369.6 4469.46,1384.31C4457.96,1396.85 4447.47,1411.5 4438,1428.24C4437.27,1429.52 4435.59,1430.3 4433.82,1430.18C4432.04,1430.06 4430.55,1429.07 4430.12,1427.71C4425.1,1411.97 4417.55,1397.88 4407.44,1385.43C4396.95,1372.51 4383.72,1361.36 4367.74,1351.98C4352.3,1342.92 4336.2,1336.08 4319.44,1331.47C4302.15,1326.72 4284.15,1324.34 4265.45,1324.34C4250.5,1324.34 4235.55,1326.45 4220.6,1330.66C4206.99,1334.49 4193.39,1340.06 4179.77,1347.35C4164,1355.8 4149.69,1367.64 4136.82,1382.82C4126.22,1395.32 4116.6,1410.07 4107.94,1427.08C4107.18,1428.56 4105.18,1429.4 4103.18,1429.07C4101.19,1428.74 4099.8,1427.33 4099.88,1425.73L4105.11,1325.21ZM4154.25,1762.4C4154.29,1762.4 4154.33,1762.41 4154.36,1762.41L4154.25,1762.4ZM4487.52,1762.4C4487.56,1762.4 4487.59,1762.41 4487.62,1762.41L4487.52,1762.4ZM4847,1762.4C4847.03,1762.4 4847.06,1762.41 4847.09,1762.41L4847,1762.4ZM3872.64,1393.5L3872.45,1393.51C3872.51,1393.51 3872.58,1393.51 3872.64,1393.5Z"/>
                <path d="M5071.02,1321.54C5072.11,1320.83 5073.52,1320.03 5075.24,1319.17C5077.08,1318.24 5079.32,1317.21 5081.93,1316.09C5084.87,1314.83 5087.59,1313.92 5090.08,1313.34C5092.4,1312.8 5094.55,1312.55 5096.51,1312.55C5101.53,1312.55 5105.82,1313.02 5109.37,1313.92C5112.75,1314.78 5115.51,1316.02 5117.69,1317.61C5120.01,1319.3 5121.65,1321.1 5122.66,1322.99C5123.8,1325.12 5124.17,1327.37 5123.73,1329.75L5118.5,1418.68C5117.56,1434.48 5116.82,1449.12 5116.3,1462.63C5115.68,1478.94 5115.36,1493.59 5115.36,1506.56L5115.36,1671.1C5115.36,1687.26 5116.73,1700.85 5119.48,1711.86C5122.13,1722.45 5126.02,1730.59 5131.32,1736.22C5136.95,1742.21 5144.51,1746.85 5153.96,1750.17C5162.16,1753.05 5171.76,1754.93 5182.75,1755.86C5184.48,1755.92 5186.34,1756.57 5187.95,1758.28C5189.44,1759.85 5190.97,1762.83 5192.28,1767.3C5193.25,1770.57 5193.95,1773.48 5194.4,1776.03C5194.81,1778.37 5195.01,1780.42 5195.01,1782.18C5195.01,1784.59 5194.74,1787.22 5194.2,1790.06C5193.75,1792.43 5193.11,1794.96 5192.27,1797.64C5190.92,1801.95 5189.34,1804.81 5187.81,1806.3C5186.13,1807.94 5184.23,1808.52 5182.45,1808.52C5172.66,1808.52 5161.77,1808.34 5149.78,1807.99C5135.14,1807.55 5118.86,1806.85 5100.94,1805.89C5085.89,1805.08 5071.7,1804.46 5058.38,1804.03C5043.04,1803.53 5028.86,1803.28 5015.82,1803.28C5003.44,1803.28 4990.39,1803.52 4976.67,1803.99C4964.18,1804.43 4951.14,1805.06 4937.54,1805.89C4924.29,1806.7 4911.86,1807.32 4900.24,1807.75C4886.64,1808.26 4874.16,1808.52 4862.81,1808.52C4861.03,1808.52 4859.13,1807.94 4857.45,1806.3C4855.92,1804.81 4854.33,1801.95 4852.98,1797.64C4852.15,1794.96 4851.5,1792.43 4851.05,1790.06C4850.51,1787.22 4850.24,1784.59 4850.24,1782.18C4850.24,1780.44 4850.44,1778.45 4850.84,1776.22C4851.29,1773.73 4852.01,1770.91 4852.98,1767.78C4854.07,1764.32 4855.24,1761.71 4856.44,1759.94C4857.89,1757.81 4859.61,1756.63 4861.17,1756.11C4861.51,1756 4861.87,1755.92 4862.24,1755.88C4873.4,1754.67 4883.12,1752.67 4891.38,1749.84C4901.21,1746.47 4908.93,1741.93 4914.5,1736.18C4919.7,1730.82 4923.48,1722.69 4926.03,1711.87C4928.61,1700.94 4929.89,1687.35 4929.89,1671.1C4929.89,1671.1 4929.89,1513.9 4929.89,1513.9C4929.89,1500.46 4928.64,1489.34 4926.08,1480.53C4923.59,1471.95 4919.95,1465.65 4914.89,1461.73C4910.16,1458.07 4903.86,1455 4896.05,1452.48C4886.84,1449.51 4875.56,1447.32 4862.24,1445.88C4861.87,1445.84 4861.51,1445.76 4861.17,1445.65C4859.63,1445.13 4857.97,1444.02 4856.54,1442.06C4855.31,1440.36 4854.11,1437.87 4853,1434.55C4852,1431.56 4851.28,1428.84 4850.83,1426.39C4850.44,1424.27 4850.24,1422.35 4850.24,1420.62C4850.24,1418.88 4850.44,1416.89 4850.84,1414.66C4851.29,1412.16 4852.01,1409.35 4852.98,1406.22C4854.33,1401.9 4855.92,1399.05 4857.45,1397.56C4858.91,1396.13 4860.54,1395.51 4862.11,1395.37C4879.85,1391.66 4898.76,1386.72 4918.86,1380.56C4936.4,1375.17 4954.85,1368.85 4974.19,1361.6C4996.53,1353.22 5016.19,1345.49 5033.16,1338.4C5047.78,1332.3 5060.4,1326.68 5071.02,1321.54ZM5181.36,1762.33C5169.61,1761.31 5159.34,1759.24 5150.54,1756.15C5139.7,1752.34 5131.06,1746.99 5124.59,1740.11C5118.71,1733.87 5114.21,1724.88 5111.27,1713.12C5108.44,1701.77 5107,1687.76 5107,1671.1C5107,1671.1 5107,1506.56 5107,1506.56C5107,1493.53 5107.32,1478.82 5107.95,1462.43C5108.47,1448.89 5109.2,1434.21 5110.15,1418.37L5115.39,1329.3C5115.4,1329.18 5115.41,1329.06 5115.44,1328.94C5115.68,1327.74 5115.52,1326.6 5114.95,1325.53C5114.36,1324.43 5113.36,1323.4 5112.01,1322.42C5110.32,1321.19 5108.03,1320.35 5105.22,1319.81C5102.71,1319.33 5099.8,1319.1 5096.51,1319.1C5094.97,1319.1 5093.26,1319.38 5091.38,1319.9C5089.69,1320.37 5087.88,1321.02 5085.94,1321.84C5083.52,1322.88 5081.46,1323.83 5079.75,1324.69C5078.26,1325.43 5077.07,1326.1 5076.16,1326.7L5075.65,1327C5064.85,1332.23 5052,1337.96 5037.09,1344.19C5020.02,1351.32 5000.26,1359.09 4977.8,1367.51C4958.26,1374.84 4939.63,1381.22 4921.9,1386.66C4901.35,1392.97 4882.01,1398.01 4863.88,1401.78L4863.87,1401.79C4863.71,1401.97 4863.47,1402.27 4863.32,1402.51C4862.54,1403.74 4861.82,1405.5 4861.1,1407.78C4860.2,1410.67 4859.54,1413.27 4859.12,1415.58C4858.78,1417.47 4858.6,1419.15 4858.6,1420.62C4858.6,1422.4 4858.86,1424.42 4859.35,1426.68C4859.76,1428.59 4860.34,1430.66 4861.09,1432.89C4861.68,1434.66 4862.28,1436.14 4862.91,1437.34C4863.37,1438.22 4864.12,1439.13 4864.45,1439.5C4878.11,1441.03 4889.7,1443.35 4899.23,1446.42C4908.18,1449.3 4915.34,1452.87 4920.77,1457.07C4926.72,1461.68 4931.3,1468.98 4934.23,1479.07C4936.9,1488.27 4938.25,1499.88 4938.25,1513.9L4938.25,1671.1C4938.25,1687.83 4936.91,1701.82 4934.25,1713.06C4931.4,1725.15 4926.96,1734.16 4921.16,1740.15C4915.95,1745.53 4909.13,1750.01 4900.68,1753.58C4890.87,1757.72 4878.81,1760.62 4864.49,1762.25C4864.16,1762.66 4863.39,1763.65 4862.92,1764.62C4862.29,1765.89 4861.69,1767.47 4861.1,1769.34C4860.2,1772.23 4859.54,1774.83 4859.12,1777.14C4858.78,1779.03 4858.6,1780.71 4858.6,1782.18C4858.6,1784.3 4858.85,1786.6 4859.32,1789.09C4859.74,1791.28 4860.33,1793.61 4861.1,1796.08C4861.82,1798.36 4862.54,1800.12 4863.32,1801.35C4863.44,1801.55 4863.63,1801.78 4863.78,1801.96C4874.75,1801.95 4886.77,1801.69 4899.84,1801.2C4911.38,1800.77 4923.73,1800.15 4936.89,1799.35C4950.59,1798.52 4963.72,1797.88 4976.3,1797.44C4990.15,1796.96 5003.32,1796.72 5015.82,1796.72C5028.96,1796.72 5043.26,1796.97 5058.72,1797.48C5072.12,1797.91 5086.38,1798.54 5101.51,1799.35C5116.1,1800.13 5129.6,1800.74 5142,1801.17C5156.7,1801.68 5169.86,1801.95 5181.48,1801.96C5181.63,1801.78 5181.82,1801.55 5181.94,1801.35C5182.72,1800.12 5183.44,1798.36 5184.15,1796.08C5184.92,1793.61 5185.52,1791.28 5185.94,1789.09C5186.41,1786.6 5186.65,1784.3 5186.65,1782.18C5186.65,1780.68 5186.47,1778.92 5186.12,1776.92C5185.7,1774.54 5185.04,1771.83 5184.14,1768.77C5183.43,1766.35 5182.7,1764.47 5181.92,1763.14C5181.75,1762.86 5181.52,1762.54 5181.36,1762.33ZM5182.36,1762.4C5182.39,1762.4 5182.42,1762.41 5182.45,1762.41L5182.36,1762.4ZM4862.98,1401.89L4862.81,1401.89C4862.86,1401.89 4862.92,1401.89 4862.98,1401.89ZM5116.41,1146.05C5116.41,1133.03 5114.08,1120.87 5109.42,1109.57C5104.56,1097.76 5097.16,1086.89 5087.23,1076.95C5077.88,1067.61 5067.7,1060.51 5056.72,1055.61C5044.44,1050.14 5031.16,1047.4 5016.86,1047.4C5002.57,1047.4 4989.28,1050.14 4977.01,1055.61C4966.03,1060.51 4955.84,1067.61 4946.5,1076.95C4936.57,1086.89 4929.17,1097.76 4924.31,1109.57C4919.65,1120.87 4917.32,1133.03 4917.32,1146.05C4917.32,1159.31 4919.62,1171.63 4924.2,1183.03C4929.06,1195.13 4936.5,1206.18 4946.5,1216.19C4955.84,1225.53 4966.03,1232.63 4977.01,1237.53C4989.28,1243 5002.57,1245.74 5016.86,1245.74C5031.16,1245.74 5044.44,1243 5056.72,1237.53C5067.7,1232.63 5077.88,1225.53 5087.23,1216.19C5097.23,1206.18 5104.67,1195.13 5109.53,1183.03C5114.11,1171.63 5116.41,1159.31 5116.41,1146.05ZM5108.05,1146.05C5108.05,1158.6 5105.89,1170.27 5101.56,1181.06C5097,1192.4 5090.03,1202.77 5080.65,1212.14C5072.04,1220.75 5062.7,1227.32 5052.58,1231.83C5041.59,1236.74 5029.68,1239.19 5016.86,1239.19C5004.05,1239.19 4992.14,1236.74 4981.14,1231.83C4971.03,1227.32 4961.68,1220.75 4953.08,1212.14C4943.7,1202.77 4936.73,1192.4 4932.17,1181.06C4927.83,1170.27 4925.68,1158.6 4925.68,1146.05C4925.68,1133.75 4927.86,1122.26 4932.26,1111.59C4936.82,1100.51 4943.77,1090.32 4953.08,1081C4961.68,1072.4 4971.03,1065.82 4981.14,1061.31C4992.14,1056.41 5004.05,1053.96 5016.86,1053.96C5029.68,1053.96 5041.59,1056.41 5052.58,1061.31C5062.7,1065.82 5072.04,1072.4 5080.65,1081C5089.96,1090.32 5096.9,1100.51 5101.47,1111.59C5105.86,1122.26 5108.05,1133.75 5108.05,1146.05Z"/>
                <path d="M5278.67,1644.98C5285.49,1662.19 5293.6,1677.84 5303.02,1691.92C5313.57,1707.7 5325.76,1721.51 5339.59,1733.33C5351.2,1743.27 5362.87,1750.98 5374.63,1756.46C5388.72,1763.02 5402.9,1766.33 5417.2,1766.33C5426.54,1766.33 5434.77,1765.17 5441.89,1762.81C5449.59,1760.25 5455.95,1756.28 5460.99,1750.9C5466.4,1745.13 5470.31,1738.18 5472.76,1730.05C5474.86,1723.12 5475.9,1715.34 5475.9,1706.73C5475.9,1695.62 5472.67,1685.74 5466.15,1677.11C5459.84,1668.75 5450.45,1661.58 5438.05,1655.54C5424.75,1649.07 5411.36,1642.63 5397.89,1636.25C5384.49,1629.9 5371.01,1623.59 5357.51,1617.36C5341.96,1610.49 5327.01,1602.51 5312.66,1593.42C5298.95,1584.74 5285.79,1575.04 5273.17,1564.33C5259.14,1552.41 5248.85,1538.14 5242.31,1521.51C5236.65,1507.13 5233.81,1490.97 5233.81,1473.02C5233.81,1450.6 5239.54,1430.01 5250.98,1411.24C5262.13,1392.94 5278.72,1376.36 5300.77,1361.54C5322.33,1347.05 5344.86,1336.09 5368.35,1328.63C5393.33,1320.7 5419.39,1316.74 5446.54,1316.74C5462.53,1316.74 5477.47,1317.68 5491.35,1319.56C5507.16,1321.69 5521.61,1325.04 5534.7,1329.6C5546.17,1333.59 5557.6,1336.61 5569,1338.66C5580.97,1340.81 5592.9,1341.89 5604.79,1341.89C5607.1,1341.89 5608.97,1343.36 5608.97,1345.17C5608.97,1352.32 5609.12,1360.67 5609.43,1370.25C5609.77,1381.21 5610.32,1393.77 5611.06,1407.91C5611.83,1422.48 5612.6,1435.67 5613.36,1447.51C5613.99,1457.21 5614.62,1466 5615.25,1473.87C5615.26,1473.93 5615.26,1474 5615.26,1474.07C5615.26,1475.72 5614.45,1477.36 5612.52,1478.89C5610.77,1480.28 5607.85,1481.67 5603.64,1482.9C5600.31,1483.88 5597.34,1484.6 5594.73,1485.07C5592.18,1485.52 5589.94,1485.73 5588.02,1485.73C5585.29,1485.73 5582.55,1485.54 5579.81,1485.14C5577.18,1484.76 5574.55,1484.19 5571.92,1483.44C5568.5,1482.46 5565.93,1481.17 5564.12,1479.65C5562.41,1478.21 5561.33,1476.56 5560.86,1474.68C5557.36,1460.04 5552.51,1446.84 5546.28,1435.08C5539.13,1421.56 5530.17,1409.94 5519.38,1400.25C5510.37,1392.15 5501.2,1385.88 5491.84,1381.45C5480.83,1376.23 5469.58,1373.6 5458.07,1373.6C5448.91,1373.6 5440.73,1374.42 5433.53,1376.1C5425.28,1378.03 5418.35,1381.07 5412.75,1385.27C5407.05,1389.54 5402.97,1395.23 5400.43,1402.28C5398.32,1408.17 5397.28,1414.98 5397.28,1422.72C5397.28,1434.23 5400.71,1444.45 5407.64,1453.36C5414.3,1461.92 5424.16,1469.28 5437.18,1475.46C5450.84,1481.95 5464.34,1488.19 5477.66,1494.17C5491.54,1500.41 5505.23,1506.37 5518.74,1512.06L5518.77,1512.07C5534.01,1518.6 5548.84,1526.2 5563.24,1534.88C5576.88,1543.1 5590.15,1552.27 5603.04,1562.41C5617.47,1573.76 5628.06,1587.52 5634.8,1603.7C5640.62,1617.7 5643.56,1633.53 5643.56,1651.18C5643.56,1675.59 5638.84,1697.83 5629.45,1717.91C5619.39,1739.43 5603.95,1758.48 5583.14,1775.05C5562.35,1791.61 5538.38,1803.89 5511.24,1811.91C5485.83,1819.42 5457.63,1823.19 5426.63,1823.19C5403.16,1823.19 5383.11,1821.85 5366.47,1819.19C5350.59,1816.66 5337.77,1812.9 5327.97,1808C5319.38,1803.71 5309.11,1800.41 5297.16,1798.08C5282.66,1795.25 5265.73,1793.85 5246.38,1793.85C5244.22,1793.85 5242.42,1792.56 5242.22,1790.88C5241.22,1782.58 5240.07,1772.58 5238.75,1760.89C5237.3,1747.97 5235.66,1732.98 5233.83,1715.91C5232.08,1699.65 5230.42,1685.72 5228.85,1674.11C5227.3,1662.67 5225.84,1653.5 5224.46,1646.58C5223.92,1644.76 5224.42,1642.98 5226.23,1641.29C5227.76,1639.86 5230.61,1638.39 5234.95,1637.11C5238.28,1636.13 5241.25,1635.41 5243.86,1634.95C5246.41,1634.5 5248.65,1634.28 5250.57,1634.28C5253.41,1634.28 5256.31,1634.54 5259.26,1635.07C5261.93,1635.55 5264.64,1636.25 5267.4,1637.16C5270.48,1638.19 5272.88,1639.3 5274.62,1640.43C5276.82,1641.86 5278.11,1643.41 5278.67,1644.98ZM5600.62,1348.4C5589.49,1348.18 5578.33,1347.06 5567.13,1345.05C5555.23,1342.91 5543.29,1339.76 5531.31,1335.59C5518.81,1331.24 5505.02,1328.05 5489.93,1326.02C5476.49,1324.2 5462.03,1323.29 5446.54,1323.29C5420.48,1323.29 5395.46,1327.1 5371.49,1334.71C5348.8,1341.91 5327.04,1352.52 5306.21,1366.52C5285.11,1380.7 5269.2,1396.55 5258.52,1414.07C5247.61,1431.98 5242.17,1451.63 5242.17,1473.02C5242.17,1490.25 5244.87,1505.77 5250.3,1519.58C5256.45,1535.23 5266.11,1548.67 5279.32,1559.88C5291.64,1570.35 5304.51,1579.83 5317.91,1588.32C5331.89,1597.18 5346.46,1604.95 5361.68,1611.68C5375.28,1617.95 5388.79,1624.28 5402.21,1630.64C5415.72,1637.04 5429.13,1643.48 5442.46,1649.97C5456.11,1656.62 5466.39,1664.57 5473.35,1673.77C5480.6,1683.38 5484.26,1694.36 5484.26,1706.73C5484.26,1715.9 5483.13,1724.18 5480.9,1731.56C5478.16,1740.62 5473.75,1748.35 5467.73,1754.78C5461.77,1761.14 5454.24,1765.82 5445.15,1768.84C5437.09,1771.52 5427.78,1772.89 5417.2,1772.89C5404.39,1772.89 5391.65,1770.51 5378.99,1765.73C5363.7,1759.96 5348.49,1750.65 5333.42,1737.76C5319.13,1725.54 5306.53,1711.28 5295.62,1694.97C5285.98,1680.56 5277.66,1664.54 5270.68,1646.92C5270.66,1646.87 5270.64,1646.82 5270.63,1646.77C5270.41,1646.13 5269.63,1645.63 5268.59,1645.06C5267.42,1644.41 5265.93,1643.8 5264.13,1643.2C5261.85,1642.44 5259.61,1641.86 5257.4,1641.46C5255.08,1641.05 5252.81,1640.84 5250.57,1640.84C5249.18,1640.84 5247.56,1641.02 5245.71,1641.34C5243.42,1641.75 5240.81,1642.39 5237.89,1643.25C5236.15,1643.76 5234.74,1644.28 5233.69,1644.82C5233.32,1645.01 5232.91,1645.32 5232.7,1645.48C5234.1,1652.48 5235.59,1661.8 5237.16,1673.42C5238.74,1685.07 5240.4,1699.05 5242.16,1715.36C5243.99,1732.42 5245.63,1747.4 5247.08,1760.32C5248.24,1770.64 5249.27,1779.63 5250.19,1787.31C5268.73,1787.49 5285.06,1788.96 5299.18,1791.72C5312.09,1794.24 5323.18,1797.84 5332.46,1802.48C5341.54,1807.01 5353.44,1810.42 5368.14,1812.77C5384.32,1815.35 5403.81,1816.63 5426.63,1816.63C5456.55,1816.63 5483.77,1813.03 5508.29,1805.78C5534.3,1798.1 5557.27,1786.32 5577.19,1770.45C5597.14,1754.56 5611.95,1736.29 5621.6,1715.65C5630.68,1696.25 5635.2,1674.76 5635.2,1651.18C5635.2,1634.29 5632.43,1619.14 5626.85,1605.74C5620.54,1590.58 5610.64,1577.68 5597.12,1567.04C5584.5,1557.11 5571.51,1548.12 5558.15,1540.08C5544.1,1531.62 5529.63,1524.2 5514.76,1517.82C5501.19,1512.11 5487.44,1506.12 5473.51,1499.86C5460.12,1493.85 5446.57,1487.59 5432.85,1481.07C5418.57,1474.28 5407.81,1466.17 5400.5,1456.77C5392.8,1446.86 5388.92,1435.52 5388.92,1422.72C5388.92,1412.33 5390.7,1403.48 5394.2,1396.15C5397.21,1389.85 5401.48,1384.65 5406.98,1380.53C5413.49,1375.64 5421.54,1372.06 5431.15,1369.82C5439.05,1367.98 5448.02,1367.04 5458.07,1367.04C5471.04,1367.04 5483.75,1369.96 5496.17,1375.84C5506.18,1380.58 5516.03,1387.27 5525.67,1395.94C5537.02,1406.13 5546.48,1418.34 5554,1432.57C5560.43,1444.72 5565.46,1458.35 5569.07,1473.44C5569.28,1474.28 5569.87,1474.98 5570.77,1475.58C5571.79,1476.26 5573.14,1476.81 5574.78,1477.28C5576.97,1477.9 5579.15,1478.38 5581.33,1478.69C5583.56,1479.02 5585.79,1479.18 5588.02,1479.18C5589.41,1479.18 5591.03,1479 5592.88,1478.67C5595.17,1478.27 5597.78,1477.63 5600.7,1476.77C5602.21,1476.33 5603.5,1475.87 5604.56,1475.41C5605.25,1475.11 5605.82,1474.81 5606.29,1474.49C5606.52,1474.34 5606.78,1474.08 5606.89,1473.98C5606.26,1466.17 5605.64,1457.45 5605.02,1447.84C5604.25,1435.99 5603.48,1422.77 5602.71,1408.18C5601.97,1394 5601.42,1381.41 5601.07,1370.41C5600.81,1362.18 5600.66,1354.85 5600.62,1348.4Z"/>
                <path d="M6274.45,1574.68C6274.45,1541.09 6268.58,1509.57 6256.86,1480.14C6244.67,1449.54 6226.15,1421.19 6201.31,1395.08C6176.08,1368.58 6145.39,1348.89 6109.26,1336.01C6075.21,1323.88 6036.31,1317.79 5992.55,1317.79C5948.04,1317.79 5908.66,1323.89 5874.4,1336.04C5837.6,1349.09 5806.68,1369.13 5781.66,1396.17C5757.35,1422.45 5739.19,1450.68 5727.18,1480.85C5715.47,1510.28 5709.6,1541.55 5709.6,1574.68C5709.6,1607.8 5715.39,1638.73 5726.93,1667.47C5739.04,1697.6 5757.48,1725.32 5782.26,1750.64C5807.59,1776.54 5838.76,1795.69 5875.73,1808.12C5909.73,1819.55 5948.67,1825.29 5992.55,1825.29C6036.65,1825.29 6075.67,1819.54 6109.62,1808.09C6146.75,1795.57 6177.84,1776.24 6202.88,1750.09C6227.22,1724.66 6245.36,1696.98 6257.28,1667.05C6268.72,1638.33 6274.45,1607.55 6274.45,1574.68ZM6266.09,1574.68C6266.09,1606.85 6260.5,1636.99 6249.3,1665.09C6237.66,1694.31 6219.95,1721.33 6196.19,1746.16C6172.06,1771.36 6142.1,1790 6106.32,1802.07C6073.33,1813.19 6035.4,1818.73 5992.55,1818.73C5949.91,1818.73 5912.07,1813.2 5879.02,1802.09C5843.36,1790.11 5813.32,1771.62 5788.89,1746.65C5764.71,1721.95 5746.72,1694.9 5734.91,1665.5C5723.61,1637.37 5717.96,1607.1 5717.96,1574.68C5717.96,1542.24 5723.69,1511.62 5735.16,1482.8C5746.9,1453.31 5764.66,1425.71 5788.43,1400.02C5812.55,1373.94 5842.35,1354.6 5877.85,1342.01C5911.11,1330.21 5949.35,1324.34 5992.55,1324.34C6035.01,1324.34 6072.76,1330.21 6105.8,1341.98C6140.67,1354.41 6170.27,1373.42 6194.61,1399.01C6218.88,1424.51 6236.97,1452.2 6248.88,1482.1C6260.36,1510.92 6266.09,1541.78 6266.09,1574.68ZM6083.72,1573.63C6083.72,1538.58 6082.19,1508.04 6079.15,1482.02C6076.33,1457.96 6072.22,1437.75 6066.82,1421.38C6061.45,1405.12 6053.3,1392.63 6042.53,1383.87C6029.65,1373.38 6013,1368.09 5992.55,1368.09C5971.97,1368.09 5955.18,1373.55 5942.15,1384.39C5931.43,1393.32 5923.25,1405.97 5917.77,1422.41C5912.26,1438.95 5908.04,1459.02 5905.14,1482.61C5901.94,1508.64 5900.34,1538.98 5900.34,1573.63C5900.34,1608.6 5901.87,1638.85 5904.93,1664.36C5907.84,1688.61 5912.13,1708.62 5917.79,1724.38C5923.44,1740.13 5931.93,1752.14 5943.12,1760.5C5956,1770.12 5972.46,1774.98 5992.55,1774.98C6012.48,1774.98 6028.8,1769.97 6041.57,1760.04C6052.41,1751.62 6060.69,1739.57 6066.27,1723.85C6071.9,1708 6076.18,1688.06 6079.08,1664.05C6082.17,1638.54 6083.72,1608.4 6083.72,1573.63ZM6075.36,1573.63C6075.36,1608.16 6073.83,1638.09 6070.76,1663.43C6067.91,1686.98 6063.74,1706.54 6058.22,1722.09C6053.09,1736.53 6045.64,1747.65 6035.68,1755.38C6024.46,1764.11 6010.07,1768.43 5992.55,1768.43C5974.82,1768.43 5960.25,1764.24 5948.89,1755.75C5938.64,1748.1 5931.01,1737.03 5925.84,1722.61C5920.29,1707.15 5916.11,1687.53 5913.26,1663.75C5910.22,1638.4 5908.7,1608.37 5908.7,1573.63C5908.7,1539.22 5910.28,1509.09 5913.46,1483.24C5916.31,1460.05 5920.44,1440.33 5925.86,1424.07C5930.92,1408.88 5938.33,1397.13 5948.24,1388.89C5959.68,1379.37 5974.47,1374.65 5992.55,1374.65C6010.52,1374.65 6025.19,1379.2 6036.51,1388.41C6046.43,1396.49 6053.78,1408.04 6058.72,1423.02C6064.03,1439.11 6068.06,1458.98 6070.82,1482.62C6073.85,1508.47 6075.36,1538.81 6075.36,1573.63Z"/>
                <path d="M6523.57,1317.33C6524.66,1316.62 6526.06,1315.84 6527.76,1314.98C6529.61,1314.05 6531.84,1313.02 6534.46,1311.9C6537.4,1310.64 6540.12,1309.73 6542.61,1309.15C6544.93,1308.61 6547.08,1308.35 6549.04,1308.35C6554.06,1308.35 6558.35,1308.83 6561.9,1309.73C6565.28,1310.59 6568.04,1311.83 6570.22,1313.42C6572.45,1315.04 6574.13,1316.77 6575.3,1318.59C6576.65,1320.69 6577.32,1322.91 6577.32,1325.26C6577.32,1325.3 6577.32,1325.35 6577.32,1325.39L6572.95,1409.34C6578.69,1400.28 6585.01,1391.71 6591.88,1383.63C6603.09,1370.46 6615.8,1358.59 6630,1348.03C6645.1,1336.8 6659.69,1328.63 6673.75,1323.47C6686.01,1318.96 6697.9,1316.74 6709.38,1316.74C6726.01,1316.74 6740.91,1318.55 6754.1,1322.14C6769.12,1326.23 6781.95,1332.63 6792.57,1341.33C6803.06,1349.91 6810.8,1359.93 6815.8,1371.41C6820.29,1381.74 6822.56,1393.25 6822.56,1405.95C6822.56,1417.71 6820.93,1428.48 6817.7,1438.27C6814,1449.5 6808.19,1459.45 6800.29,1468.12C6792.88,1476.26 6784.33,1482.38 6774.7,1486.54C6764.61,1490.88 6753.32,1493.07 6740.82,1493.07C6733.33,1493.07 6726.44,1492.29 6720.15,1490.75C6713.22,1489.05 6707,1486.43 6701.49,1482.89C6696.76,1479.85 6692.43,1476.81 6688.5,1473.77C6684.09,1470.36 6680.17,1466.94 6676.75,1463.52L6676.62,1463.39C6673.53,1459.95 6670.32,1456.6 6666.97,1453.34C6663.61,1450.07 6660.13,1446.89 6656.52,1443.8C6653.4,1441.12 6650.12,1439.07 6646.65,1437.67C6642.97,1436.18 6639.08,1435.43 6634.98,1435.43C6628.35,1435.43 6622.39,1436.43 6617.1,1438.48C6611.79,1440.53 6607.17,1443.63 6603.2,1447.75C6599.26,1451.85 6595.21,1456.84 6591.04,1462.69C6586.26,1469.42 6581.34,1477.29 6576.28,1486.29L6576.28,1670.05C6576.28,1686.13 6577.62,1699.63 6580.35,1710.52C6582.99,1721.09 6586.88,1729.13 6592.19,1734.61C6597.06,1739.64 6603.96,1743.81 6612.82,1747.2C6623.27,1751.19 6636.38,1754.06 6652.15,1755.86C6653.81,1755.94 6655.55,1756.56 6657.11,1758.07C6658.63,1759.56 6660.22,1762.41 6661.57,1766.73C6662.4,1769.41 6663.05,1771.93 6663.5,1774.31C6664.04,1777.15 6664.31,1779.78 6664.31,1782.18C6664.31,1783.95 6664.11,1786 6663.69,1788.34C6663.24,1790.89 6662.54,1793.8 6661.58,1797.07C6660.27,1801.54 6658.73,1804.52 6657.25,1806.09C6655.54,1807.9 6653.56,1808.52 6651.74,1808.52C6641.89,1808.52 6630.85,1808.3 6618.61,1807.87C6603.86,1807.35 6587.36,1806.51 6569.14,1805.36C6553.86,1804.4 6539.5,1803.66 6526.08,1803.14C6510.47,1802.53 6496.11,1802.23 6483.02,1802.23C6470.44,1802.23 6456.87,1802.53 6442.32,1803.12C6429.52,1803.64 6415.96,1804.38 6401.63,1805.36C6387.67,1806.31 6374.72,1807.05 6362.77,1807.57C6348.28,1808.2 6335.26,1808.52 6323.72,1808.52C6321.9,1808.52 6319.92,1807.9 6318.21,1806.09C6316.73,1804.52 6315.2,1801.54 6313.88,1797.07C6312.92,1793.8 6312.22,1790.89 6311.77,1788.34C6311.36,1786 6311.16,1783.95 6311.16,1782.18C6311.16,1779.78 6311.42,1777.15 6311.96,1774.31C6312.42,1771.93 6313.06,1769.41 6313.9,1766.73C6315.25,1762.41 6316.83,1759.56 6318.36,1758.07C6319.89,1756.58 6321.6,1755.96 6323.24,1755.87C6338.35,1753.79 6350.68,1750.96 6360.2,1747.31C6368.85,1744 6375.12,1740.07 6378.87,1735.38C6383.02,1730.19 6385.98,1721.9 6387.97,1710.57C6389.86,1699.75 6390.8,1686.24 6390.8,1670.05C6390.8,1670.05 6390.8,1505.51 6390.8,1505.51C6390.8,1492.29 6390.06,1481.25 6388.55,1472.38C6386.99,1463.2 6384.69,1456.45 6381.44,1452.17C6378.54,1448.35 6373.49,1445.25 6366.44,1442.71C6358.62,1439.9 6348.44,1437.83 6335.92,1436.47C6334.29,1436.39 6332.62,1435.83 6331.1,1434.47C6329.53,1433.07 6327.88,1430.34 6326.49,1426.17C6325.49,1423.18 6324.77,1420.45 6324.32,1418.01C6323.92,1415.89 6323.73,1413.97 6323.73,1412.24C6323.73,1410.49 6323.93,1408.51 6324.33,1406.28C6324.78,1403.78 6325.49,1400.97 6326.47,1397.84C6327.82,1393.52 6329.41,1390.66 6330.93,1389.17C6332.36,1387.78 6333.94,1387.15 6335.48,1387C6346.25,1384.37 6358.92,1380.68 6373.51,1375.91C6389.89,1370.56 6408.67,1363.87 6429.84,1355.84C6451.41,1347.66 6470.4,1340.17 6486.82,1333.38C6501,1327.51 6513.25,1322.16 6523.57,1317.33ZM6568.96,1325.21C6568.95,1323.92 6568.58,1322.69 6567.84,1321.54C6567.08,1320.37 6565.97,1319.27 6564.54,1318.23C6562.85,1317 6560.56,1316.16 6557.75,1315.62C6555.23,1315.14 6552.33,1314.91 6549.04,1314.91C6547.5,1314.91 6545.79,1315.19 6543.9,1315.71C6542.21,1316.17 6540.4,1316.82 6538.47,1317.65C6536.05,1318.69 6533.99,1319.64 6532.28,1320.5C6530.79,1321.24 6529.59,1321.91 6528.69,1322.51L6528.13,1322.83C6517.65,1327.74 6505.18,1333.19 6490.72,1339.18C6474.23,1346 6455.15,1353.52 6433.48,1361.74C6412.15,1369.84 6393.23,1376.58 6376.72,1381.97C6361.66,1386.88 6348.6,1390.68 6337.53,1393.36L6337.36,1393.4C6337.2,1393.59 6336.96,1393.88 6336.8,1394.12C6336.02,1395.36 6335.3,1397.12 6334.59,1399.4C6333.69,1402.29 6333.03,1404.89 6332.61,1407.2C6332.27,1409.08 6332.09,1410.76 6332.09,1412.24C6332.09,1414.01 6332.35,1416.03 6332.84,1418.3C6333.25,1420.2 6333.83,1422.27 6334.58,1424.51C6335.38,1426.92 6336.89,1429.38 6337.28,1430C6350.68,1431.47 6361.55,1433.74 6369.93,1436.76C6378.79,1439.95 6384.97,1444.01 6388.62,1448.81C6392.28,1453.63 6395.09,1461.18 6396.84,1471.52C6398.39,1480.62 6399.16,1491.95 6399.16,1505.51L6399.16,1670.05C6399.16,1686.6 6398.19,1700.4 6396.25,1711.46C6394.05,1724 6390.55,1733.12 6385.95,1738.86C6381.48,1744.44 6374.17,1749.26 6363.87,1753.2C6353.79,1757.06 6340.76,1760.11 6324.77,1762.31C6324.61,1762.5 6324.38,1762.78 6324.23,1763.02C6323.45,1764.25 6322.73,1766.01 6322.02,1768.29C6321.24,1770.76 6320.65,1773.09 6320.23,1775.27C6319.76,1777.77 6319.52,1780.07 6319.52,1782.18C6319.52,1783.69 6319.7,1785.44 6320.05,1787.44C6320.47,1789.83 6321.13,1792.54 6322.03,1795.6C6322.74,1798.02 6323.47,1799.9 6324.25,1801.22C6324.4,1801.48 6324.6,1801.76 6324.75,1801.96C6335.9,1801.94 6348.41,1801.63 6362.3,1801.03C6374.17,1800.51 6387.04,1799.78 6400.91,1798.83C6415.34,1797.85 6428.99,1797.09 6441.89,1796.57C6456.59,1795.97 6470.3,1795.67 6483.02,1795.67C6496.24,1795.67 6510.73,1795.98 6526.49,1796.59C6540,1797.11 6554.44,1797.86 6569.81,1798.83C6587.93,1799.97 6604.32,1800.8 6618.99,1801.32C6630.66,1801.73 6641.23,1801.95 6650.71,1801.96C6650.87,1801.76 6651.07,1801.48 6651.22,1801.22C6652,1799.9 6652.72,1798.02 6653.44,1795.6C6654.33,1792.54 6654.99,1789.83 6655.41,1787.44C6655.77,1785.44 6655.95,1783.69 6655.95,1782.18C6655.95,1780.07 6655.71,1777.77 6655.23,1775.27C6654.82,1773.09 6654.22,1770.76 6653.45,1768.29C6652.74,1766.01 6652.02,1764.25 6651.24,1763.02C6651.09,1762.79 6650.86,1762.51 6650.7,1762.32C6634.05,1760.4 6620.21,1757.31 6609.16,1753.09C6598.99,1749.2 6591.13,1744.35 6585.54,1738.58C6579.61,1732.47 6575.09,1723.56 6572.15,1711.78C6569.34,1700.55 6567.92,1686.64 6567.92,1670.05L6567.92,1485.6C6567.92,1485.15 6568.04,1484.7 6568.27,1484.28C6573.58,1474.8 6578.74,1466.54 6583.74,1459.5C6588.12,1453.35 6592.38,1448.12 6596.53,1443.8C6601.33,1438.81 6606.97,1435.08 6613.41,1432.6C6619.79,1430.13 6626.98,1428.87 6634.98,1428.87C6640.42,1428.87 6645.59,1429.86 6650.49,1431.84C6654.77,1433.58 6658.84,1436.08 6662.69,1439.37C6666.42,1442.57 6670.02,1445.86 6673.48,1449.23C6676.91,1452.58 6680.21,1456.01 6683.38,1459.53C6686.58,1462.72 6690.25,1465.91 6694.37,1469.11C6698.13,1472.01 6702.27,1474.92 6706.79,1477.83C6711.47,1480.83 6716.75,1483.05 6722.64,1484.49C6728.17,1485.85 6734.24,1486.51 6740.82,1486.51C6751.84,1486.51 6761.79,1484.62 6770.67,1480.79C6779.28,1477.08 6786.87,1471.58 6793.49,1464.31C6800.81,1456.27 6806.18,1447.04 6809.61,1436.63C6812.68,1427.34 6814.2,1417.11 6814.2,1405.95C6814.2,1394.03 6812.1,1383.22 6807.89,1373.53C6803.3,1362.98 6796.18,1353.75 6786.54,1345.86C6776.82,1337.91 6765.09,1332.08 6751.36,1328.34C6738.98,1324.96 6724.98,1323.29 6709.38,1323.29C6699.03,1323.29 6688.34,1325.35 6677.29,1329.41C6663.94,1334.31 6650.1,1342.12 6635.76,1352.79C6622,1363.02 6609.69,1374.51 6598.83,1387.27C6588.5,1399.41 6579.48,1412.7 6571.76,1427.13C6570.98,1428.6 6568.97,1429.41 6567,1429.06C6565.02,1428.72 6563.65,1427.32 6563.73,1425.73L6568.96,1325.21ZM6651.37,1762.38C6651.49,1762.4 6651.62,1762.41 6651.74,1762.41L6651.37,1762.38ZM6336.49,1393.5L6336.3,1393.51C6336.36,1393.51 6336.42,1393.51 6336.49,1393.5Z"/>
                <path d="M7410.48,1574.68C7410.48,1541.09 7404.61,1509.57 7392.89,1480.14C7380.7,1449.54 7362.19,1421.19 7337.34,1395.08C7312.11,1368.58 7281.42,1348.89 7245.29,1336.01C7211.24,1323.88 7172.34,1317.79 7128.58,1317.79C7084.07,1317.79 7044.7,1323.89 7010.44,1336.04C6973.63,1349.09 6942.71,1369.13 6917.7,1396.17C6893.38,1422.45 6875.22,1450.68 6863.21,1480.85C6851.5,1510.28 6845.64,1541.55 6845.64,1574.68C6845.64,1607.8 6851.42,1638.73 6862.97,1667.47C6875.07,1697.6 6893.51,1725.32 6918.29,1750.64C6943.63,1776.54 6974.79,1795.69 7011.76,1808.12C7045.77,1819.55 7084.7,1825.29 7128.58,1825.29C7172.68,1825.29 7211.7,1819.54 7245.65,1808.09C7282.78,1795.57 7313.87,1776.24 7338.91,1750.09C7363.25,1724.66 7381.39,1696.98 7393.32,1667.05C7404.76,1638.33 7410.48,1607.55 7410.48,1574.68ZM7402.12,1574.68C7402.12,1606.85 7396.53,1636.99 7385.34,1665.09C7373.69,1694.31 7355.99,1721.33 7332.22,1746.16C7308.09,1771.36 7278.14,1790 7242.35,1802.07C7209.36,1813.19 7171.44,1818.73 7128.58,1818.73C7085.94,1818.73 7048.1,1813.2 7015.06,1802.09C6979.4,1790.11 6949.36,1771.62 6924.92,1746.65C6900.74,1721.95 6882.75,1694.9 6870.94,1665.5C6859.64,1637.37 6854,1607.1 6854,1574.68C6854,1542.24 6859.72,1511.62 6871.19,1482.8C6882.93,1453.31 6900.69,1425.71 6924.46,1400.02C6948.59,1373.94 6978.39,1354.6 7013.88,1342.01C7047.14,1330.21 7085.38,1324.34 7128.58,1324.34C7171.04,1324.34 7208.8,1330.21 7241.83,1341.98C7276.7,1354.41 7306.3,1373.42 7330.64,1399.01C7354.91,1424.51 7373,1452.2 7384.91,1482.1C7396.39,1510.92 7402.12,1541.78 7402.12,1574.68ZM7219.75,1573.63C7219.75,1538.58 7218.22,1508.04 7215.18,1482.02C7212.37,1457.96 7208.25,1437.75 7202.85,1421.38C7197.48,1405.12 7189.34,1392.63 7178.56,1383.87C7165.68,1373.38 7149.03,1368.09 7128.58,1368.09C7108,1368.09 7091.22,1373.55 7078.19,1384.39C7067.46,1393.32 7059.28,1405.97 7053.8,1422.41C7048.29,1438.95 7044.07,1459.02 7041.17,1482.61C7037.97,1508.64 7036.37,1538.98 7036.37,1573.63C7036.37,1608.6 7037.9,1638.85 7040.96,1664.36C7043.87,1688.61 7048.17,1708.62 7053.82,1724.38C7059.47,1740.13 7067.96,1752.14 7079.15,1760.5C7092.03,1770.12 7108.49,1774.98 7128.58,1774.98C7148.51,1774.98 7164.83,1769.97 7177.6,1760.04C7188.44,1751.62 7196.72,1739.57 7202.3,1723.85C7207.93,1708 7212.21,1688.06 7215.11,1664.05C7218.2,1638.54 7219.75,1608.4 7219.75,1573.63ZM7211.39,1573.63C7211.39,1608.16 7209.86,1638.09 7206.79,1663.43C7203.94,1686.98 7199.77,1706.54 7194.25,1722.09C7189.13,1736.53 7181.67,1747.65 7171.72,1755.38C7160.49,1764.11 7146.1,1768.43 7128.58,1768.43C7110.85,1768.43 7096.28,1764.24 7084.92,1755.75C7074.67,1748.1 7067.04,1737.03 7061.87,1722.61C7056.32,1707.15 7052.14,1687.53 7049.29,1663.75C7046.25,1638.4 7044.73,1608.37 7044.73,1573.63C7044.73,1539.22 7046.32,1509.09 7049.49,1483.24C7052.34,1460.05 7056.47,1440.33 7061.89,1424.07C7066.95,1408.88 7074.36,1397.13 7084.27,1388.89C7095.72,1379.37 7110.5,1374.65 7128.58,1374.65C7146.55,1374.65 7161.22,1379.2 7172.54,1388.41C7182.46,1396.49 7189.81,1408.04 7194.75,1423.02C7200.06,1439.11 7204.09,1458.98 7206.86,1482.62C7209.88,1508.47 7211.39,1538.81 7211.39,1573.63Z"/>
            </g>
        </g>
    </g>
    <g transform="matrix(1.25736,0,0,0.998483,29.4701,-35.9454)">
        <g transform="matrix(0.687338,0,0,0.819038,-474.821,784.759)">
            <path d="M2663.64,-798.098C2663.64,-762.917 2662.47,-739.464 2660.12,-727.737C2657.78,-716.01 2653.09,-713.665 2646.05,-720.701C2634.33,-732.428 2618.49,-745.913 2598.56,-761.158C2578.62,-776.403 2544.03,-784.026 2494.78,-784.026C2452.56,-784.026 2413.86,-781.68 2378.68,-776.989C2343.5,-772.299 2307.73,-762.917 2271.38,-748.845C2235.03,-734.773 2196.92,-715.424 2157.04,-690.798C2117.17,-666.171 2072.61,-632.75 2023.36,-590.533C1953,-531.9 1876.77,-445.708 1794.69,-331.958C1712.6,-218.208 1629.92,-93.904 1546.66,40.954C1463.4,175.812 1384.25,313.016 1309.2,452.564C1234.15,592.113 1168.48,717.004 1112.19,827.235C1093.42,864.761 1072.9,908.737 1050.62,959.162C1028.34,1009.59 1008.4,1060.01 990.815,1110.44C973.225,1160.86 958.567,1207.77 946.84,1251.16C935.113,1294.55 929.25,1326.8 929.25,1347.9C929.25,1411.23 950.358,1442.89 992.574,1442.89C1018.37,1442.89 1047.69,1430.58 1080.53,1405.95C1113.36,1381.33 1145.02,1346.15 1175.51,1300.41C1206,1254.68 1231.8,1198.39 1252.91,1131.55C1274.02,1064.7 1284.57,989.065 1284.57,904.632C1284.57,876.488 1282.81,853.621 1279.29,836.03C1275.78,818.44 1271.67,803.782 1266.98,792.055C1266.98,777.983 1274.02,763.911 1288.09,749.839C1297.47,740.457 1309.2,729.317 1323.27,716.417C1337.34,703.518 1350.24,693.55 1361.97,686.514C1369,686.514 1373.69,688.859 1376.04,693.55C1376.04,740.457 1384.84,779.742 1402.43,811.404C1420.02,843.067 1442.3,868.865 1469.27,888.801C1496.24,908.737 1525.56,923.395 1557.22,932.776C1588.88,942.158 1618.79,946.849 1646.93,946.849C1686.8,946.849 1730.19,940.399 1777.1,927.499C1824,914.6 1872.08,892.905 1921.34,862.416C1933.06,855.38 1940.68,855.966 1944.2,864.175C1947.72,872.383 1943.62,878.833 1931.89,883.524C1856.84,923.395 1788.24,952.712 1726.09,971.475C1663.93,990.238 1605.88,999.619 1551.94,999.619C1507.38,999.619 1466.92,989.651 1430.57,969.716C1394.22,949.78 1366.66,926.913 1347.9,901.114C1347.9,990.238 1333.24,1071.15 1303.92,1143.86C1274.6,1216.57 1238.84,1278.13 1196.62,1328.56C1154.4,1378.98 1108.67,1418.27 1059.42,1446.41C1010.16,1474.55 965.603,1488.63 925.732,1488.63C888.206,1488.63 857.13,1476.9 832.504,1453.45C807.877,1429.99 795.564,1393.64 795.564,1344.39C795.564,1306.86 803.773,1261.13 820.19,1207.18C836.608,1153.24 857.13,1098.71 881.756,1043.6C906.382,988.479 931.595,935.708 957.394,885.283C983.193,834.858 1004.3,794.4 1020.72,763.911C1084.04,646.643 1152.06,527.03 1224.77,405.071C1297.47,283.112 1374.28,162.326 1455.2,42.713C1536.11,-76.9 1621.72,-192.409 1712.01,-303.813C1802.31,-415.218 1897.88,-517.827 1998.73,-611.642C2026.88,-637.441 2062.64,-667.93 2106.03,-703.111C2149.42,-738.291 2195.74,-771.712 2244.99,-803.375C2294.25,-835.037 2344.09,-861.422 2394.51,-882.531C2444.94,-903.639 2491.26,-914.193 2533.47,-914.193C2575.69,-914.193 2607.94,-903.052 2630.22,-880.772C2652.5,-858.491 2663.64,-830.933 2663.64,-798.098Z" style="fill:rgb(0,227,255);fill-rule:nonzero;"/>
            <path d="M1383.46,990.466C1381.84,1004.76 1379.82,1018.83 1377.39,1032.67C1369.52,1077.67 1357.43,1120.32 1341.18,1160.64C1326.33,1197.45 1309.91,1231.54 1291.93,1262.94C1272.15,1297.5 1250.48,1328.82 1226.95,1356.91C1205.07,1383.05 1182.29,1406.39 1158.64,1426.94C1133.01,1449.22 1106.35,1468.25 1078.68,1484.06C1048.14,1501.51 1019.17,1513.99 991.871,1521.71C968.739,1528.25 946.683,1531.42 925.732,1531.42C902.834,1531.42 881.859,1527.82 862.762,1520.91C841.358,1513.17 822.233,1501.28 805.391,1485.24C790.085,1470.66 778.054,1452.61 769.549,1430.91C760.165,1406.96 755.066,1378.17 755.066,1344.39C755.066,1325.24 756.895,1304.21 760.671,1281.29C765.022,1254.88 771.984,1225.8 781.637,1194.08C790.274,1165.7 800.009,1137.16 810.845,1108.47C821.257,1080.9 832.686,1053.18 845.135,1025.32C857.411,997.845 869.832,970.945 882.396,944.621C895.367,917.444 908.492,890.879 921.769,864.928C921.769,864.928 985.52,742.744 985.544,742.698C1017.88,682.827 1051.42,622.348 1086.19,561.26C1119.82,502.162 1154.59,442.495 1190.5,382.258C1227.25,320.619 1265.03,259.278 1303.87,198.235C1342.31,137.806 1381.77,77.669 1422.25,17.824C1463.03,-42.456 1504.99,-101.701 1548.12,-159.913C1591.32,-218.197 1635.69,-275.444 1681.26,-331.655C1726.64,-387.653 1773.35,-441.458 1821.37,-493.071C1870.21,-545.57 1920.41,-595.801 1972.2,-643.972L2081.38,-737.066C2103.95,-755.369 2127.3,-773.21 2151.42,-790.586C2174.87,-807.476 2199.04,-823.927 2223.95,-839.939C2249.14,-856.137 2274.49,-871.003 2299.98,-884.543C2326.36,-898.554 2352.9,-911.146 2379.6,-922.321C2405.25,-933.058 2429.93,-941.252 2453.63,-946.963C2481.55,-953.692 2508.17,-956.991 2533.47,-956.991C2562.61,-956.991 2587.85,-952.36 2609.3,-943.763C2628.25,-936.164 2644.46,-925.452 2658.06,-911.858C2673.48,-896.431 2684.93,-879.088 2692.61,-859.994C2700.2,-841.148 2704.14,-820.537 2704.14,-798.098C2704.14,-776.53 2703.7,-759.131 2702.87,-745.898C2702.13,-734.223 2701.01,-725.229 2699.75,-718.887C2693.17,-685.984 2673.26,-676.391 2658.95,-674.366C2648.1,-672.828 2633.21,-674.624 2618.22,-689.615L2574.82,-726.486C2567.23,-732.288 2556.07,-735.459 2541.94,-737.858C2528.43,-740.153 2512.7,-741.228 2494.78,-741.228C2475.35,-741.228 2456.71,-740.714 2438.83,-739.682C2419.56,-738.569 2401.2,-736.855 2383.75,-734.528C2367.35,-732.342 2350.81,-729.032 2334.14,-724.61C2317.99,-720.33 2301.72,-715.009 2285.31,-708.658C2267.55,-701.783 2249.34,-693.553 2230.68,-683.985C2213.33,-675.087 2195.6,-665.038 2177.48,-653.848C2156.98,-641.185 2135.18,-626.069 2112.08,-608.529C2091.98,-593.265 2070.91,-576.185 2048.44,-556.927C2011.2,-525.9 1972.31,-486.789 1931.65,-439.695C1897.89,-400.575 1862.97,-356.005 1826.89,-306.005C1784.95,-247.889 1742.86,-186.996 1700.61,-123.328C1660.74,-63.242 1620.73,-0.685 1580.58,64.34C1539.21,131.35 1498.86,198.942 1459.53,267.116C1420.13,335.397 1381.76,404.263 1344.41,473.712C1309.25,539.081 1276.16,601.227 1245.12,660.152C1210.06,726.74 1177.62,789.209 1148,847.23L1087.32,977.269C1076.51,1001.73 1066.26,1026.19 1056.58,1050.65C1046.74,1075.52 1037.49,1100.38 1028.81,1125.24C1020.56,1148.9 1012.96,1171.77 1006.02,1193.85C998.499,1217.81 991.75,1240.83 985.781,1262.91C980.208,1283.53 976.025,1301.46 973.286,1316.69C971.029,1329.25 969.748,1339.64 969.748,1347.9C969.748,1366.56 971.385,1381.39 976.749,1392C979.825,1398.09 985.442,1400.09 992.574,1400.09C1001.97,1400.09 1011.98,1397.19 1022.81,1392.18C1033.68,1387.16 1045.08,1380.06 1057.09,1371.05C1072.54,1359.46 1087.65,1345.17 1102.51,1328.28C1116.05,1312.88 1129.34,1295.37 1142.4,1275.76C1157.28,1253.45 1170.92,1228.39 1183.37,1200.62C1194.73,1175.3 1205.1,1147.75 1214.49,1118C1224.78,1085.42 1232.35,1050.6 1237.26,1013.54C1241.81,979.133 1244.07,942.831 1244.07,904.632C1244.07,893.2 1243.76,882.722 1243.13,873.198C1242.41,862.415 1241.29,852.971 1239.67,844.881L1229.68,808.719C1227.57,803.446 1226.48,797.779 1226.48,792.055C1226.48,779.638 1229.07,767.173 1234.65,754.756C1240,742.835 1248.33,730.673 1260.25,718.752L1296.73,684.087C1305.67,675.892 1314.21,668.753 1322.31,662.646C1329.14,657.502 1335.7,653.061 1341.97,649.296C1348.07,645.639 1354.96,643.716 1361.97,643.716C1373.96,643.716 1383.56,646.805 1391.12,651.235C1400.17,656.532 1407.07,663.99 1411.85,673.555C1414.93,679.717 1416.54,686.581 1416.54,693.55C1416.54,712.202 1418.11,729.442 1421.38,745.256C1424.8,761.751 1430.05,776.604 1437.35,789.736C1444.58,802.741 1452.73,814.573 1461.86,825.203C1471.08,835.945 1481.29,845.455 1492.48,853.73C1504.08,862.305 1516.19,869.75 1528.8,876.056C1541.41,882.363 1554.53,887.531 1568.15,891.568C1581.73,895.59 1594.94,898.658 1607.79,900.749C1621.25,902.938 1634.29,904.051 1646.93,904.051C1665.97,904.051 1685.89,902.412 1706.69,899.181C1726.02,896.179 1746.09,891.804 1766.9,886.081C1789.38,879.899 1812.14,871.504 1835.2,860.934C1856.84,851.018 1878.72,839.194 1900.87,825.487C1901.02,825.39 1901.18,825.293 1901.34,825.198C1923.58,811.855 1941.72,813.376 1953.97,818.588C1965.3,823.41 1974.92,832.114 1981.09,846.518C1988.92,864.773 1987.23,881.173 1979.29,895.79C1974.14,905.27 1964.82,915.504 1948.56,922.56C1913.07,941.378 1878.98,957.883 1846.3,972.09C1808.03,988.725 1771.66,1002.23 1737.21,1012.63C1705.92,1022.07 1675.61,1029.25 1646.29,1034.19C1613.64,1039.69 1582.19,1042.42 1551.94,1042.42C1527.01,1042.42 1503.21,1039.65 1480.53,1034.2C1456.41,1028.4 1433.54,1019.56 1411.92,1007.7C1401.82,1002.17 1392.34,996.424 1383.46,990.466ZM1429.01,156.344C1409.45,186.156 1390.14,216.036 1371.09,245.989C1332.7,306.326 1295.35,366.958 1259.03,427.884C1223.42,487.612 1188.94,546.776 1155.6,605.374C1121.16,665.893 1087.92,725.809 1055.92,785.077L993.019,905.638C980.101,930.885 967.334,956.729 954.714,983.168C942.462,1008.84 930.349,1035.07 918.377,1061.87C906.65,1088.12 895.881,1114.23 886.072,1140.2C875.935,1167.04 866.824,1193.74 858.744,1220.29C851.864,1242.89 846.508,1263.95 842.716,1283.47C838.345,1305.96 836.063,1326.26 836.063,1344.39C836.063,1361.82 837.827,1377.22 841.771,1390.52C845.537,1403.22 851.291,1413.73 859.616,1421.65C868.243,1429.87 878.037,1435.96 889.002,1439.93C896.478,1442.64 904.464,1444.37 912.949,1445.19C898.087,1423.52 888.751,1391.46 888.751,1347.9C888.751,1335.42 890.303,1319.68 893.713,1300.72C896.835,1283.35 901.546,1262.91 907.899,1239.4C914.167,1216.21 921.251,1192.04 929.155,1166.88C936.36,1143.95 944.246,1120.2 952.817,1095.63C961.887,1069.63 971.568,1043.63 981.858,1017.62C991.96,992.102 1002.65,966.578 1013.93,941.054C1013.93,941.054 1076.38,807.241 1076.55,806.911C1106.5,748.256 1139.1,685.461 1174.35,618.526C1205.49,559.39 1238.71,497.021 1273.99,431.417C1311.75,361.206 1350.54,291.586 1390.37,222.557C1403.14,200.42 1416.02,178.344 1429.01,156.344ZM1315.92,780.925L1309.36,789.578C1310.12,791.893 1310.85,794.282 1311.57,796.742C1314.22,805.849 1316.68,815.993 1318.92,827.18C1320.81,836.648 1322.31,847.403 1323.34,859.455C1323.54,861.802 1323.72,864.203 1323.88,866.655C1327.16,864.093 1330.85,862.033 1334.86,860.593C1351.29,854.694 1369.44,860.501 1380.01,875.034C1388.03,886.065 1398.14,896.348 1410.2,906.034C1421.56,915.159 1434.58,923.698 1449.22,931.728C1458.32,936.715 1467.72,940.953 1477.44,944.423C1466.68,938.24 1456.22,931.386 1446.06,923.872C1429.9,911.932 1415.17,898.213 1401.87,882.712C1389.09,867.824 1377.62,851.286 1367.5,833.072C1356.08,812.517 1347.6,789.368 1342.26,763.547L1341.02,757.095L1315.92,780.925ZM2623.02,-795.271L2623.14,-798.098C2623.14,-808.375 2621.55,-817.859 2618.08,-826.49C2614.62,-835.074 2609.32,-842.75 2602.39,-849.685C2594.74,-857.33 2585.11,-862.647 2573.74,-866.135C2561.95,-869.756 2548.51,-871.395 2533.47,-871.395C2513.87,-871.395 2493.26,-868.722 2471.64,-863.51C2451.72,-858.709 2430.99,-851.766 2409.43,-842.741C2390.06,-834.635 2370.79,-825.714 2351.61,-815.969C2358.97,-817.316 2366.3,-818.476 2373.61,-819.451C2392.87,-822.019 2413.14,-823.922 2434.41,-825.151C2453.7,-826.264 2473.82,-826.823 2494.78,-826.823C2523.38,-826.823 2547.6,-824.393 2567.48,-819.858C2590.67,-814.566 2608.79,-806.16 2622.3,-795.831L2623.02,-795.271Z" style="fill:rgb(0,227,255);"/>
        </g>
        <g transform="matrix(0.484237,0,0,0.743546,532.689,485.772)">
            <path d="M1034.26,441.385C1034.26,441.385 1100.59,515.187 1134.69,629.477C1145.48,665.668 1151.99,705.732 1152.85,749.418C1153.35,774.617 1151.14,800.795 1146.92,828.249C1143.84,848.285 1139.2,868.85 1133.55,890.229C1125.77,919.643 1116.13,950.372 1101.99,982.496C1086.2,1018.36 1067.08,1055.67 1041.29,1094.93C1018.6,1129.47 993.258,1165.06 961.325,1202.04C955.34,1207.45 955.264,1216.31 961.155,1221.81C967.047,1227.31 976.689,1227.38 982.675,1221.96C1034.8,1185 1077.81,1148.69 1113.91,1111.25C1142.94,1081.14 1166.29,1050.88 1185.77,1020.7C1208.58,985.345 1225.14,950.219 1236.35,915.826C1244.79,889.926 1249.64,864.307 1252.13,839.547C1255.54,805.627 1254.55,773.162 1249.95,742.489C1242.28,691.349 1226.53,645.344 1205.92,605.253C1145.45,487.6 1053.74,422.615 1053.74,422.615C1048.1,417.677 1039.16,417.874 1033.79,423.053C1028.41,428.233 1028.63,436.447 1034.26,441.385L1034.26,441.385Z" style="fill:rgb(0,255,87);stroke:rgb(0,255,87);stroke-width:103.1px;"/>
        </g>
        <g transform="matrix(0.831589,0,0,1.30769,335.296,1.39707)">
            <path d="M1035.27,436.033C1035.27,436.033 1107.58,509.181 1143.95,626.467C1155.14,662.534 1162.64,702.683 1164.13,746.393C1165,771.888 1163.55,798.519 1159.81,826.283C1157.04,846.815 1152.77,867.919 1147.35,889.661C1139.82,919.887 1129.82,951.245 1115.56,983.718C1099.38,1020.58 1078.74,1058.72 1051.4,1098.24C1026.79,1133.81 998.057,1170.32 962.477,1207.74C958.782,1211.09 960.049,1215.71 965.305,1218.06C970.561,1220.41 977.828,1219.6 981.523,1216.26C1035.51,1173.85 1080.07,1132.22 1116.12,1090.82C1143.47,1059.4 1165.67,1028.37 1183.59,997.82C1203.46,963.943 1218.05,930.774 1227.63,898.525C1234.57,875.145 1238.71,852.226 1240.63,829.985C1246.05,767.072 1235.62,709.488 1217.47,658.947C1165.58,514.41 1052.74,427.967 1052.74,427.967C1049.24,424.901 1042.48,424.219 1037.66,426.445C1032.84,428.671 1031.77,432.967 1035.27,436.033L1035.27,436.033Z" style="fill:rgb(0,255,87);stroke:rgb(0,255,87);stroke-width:59.18px;"/>
        </g>
        <g transform="matrix(1.03949,0,0,1.84615,316.259,-483.218)">
            <path d="M1036.74,434.629C1036.74,434.629 1128.28,524.296 1160.79,665.625C1171.8,713.491 1175.75,767.22 1168.01,825.758C1165.28,846.381 1161.22,867.59 1155.79,889.396C1148.22,919.802 1137.9,951.312 1123.32,983.858C1106.7,1020.99 1085.22,1059.37 1056.99,1098.97C1031.42,1134.85 1001.19,1171.65 964.094,1209.23C961.377,1211.69 962.715,1214.92 967.078,1216.45C971.442,1217.98 977.19,1217.23 979.906,1214.77C1033.6,1171.09 1077.78,1128.2 1113.19,1085.9C1139.63,1054.31 1161.14,1023.21 1178.37,992.693C1197.25,959.243 1211.13,926.573 1220.24,894.877C1226.81,872.049 1230.79,849.712 1232.71,828.02C1238.12,766.744 1228.45,710.556 1211.46,661.026C1161.99,516.89 1051.26,429.371 1051.26,429.371C1048.69,427.113 1043.34,426.459 1039.33,427.91C1035.32,429.361 1034.16,432.372 1036.74,434.629L1036.74,434.629Z" style="fill:rgb(0,255,87);stroke:rgb(0,255,87);stroke-width:43.81px;"/>
        </g>
        <g transform="matrix(1.45528,0,0,2.32308,143.146,-821.249)">
            <path d="M1038.98,434.248C1038.98,434.248 1115.57,506.895 1156.07,624.62C1168.58,660.963 1177.57,701.575 1180.07,745.786C1181.53,771.662 1180.67,798.742 1177.14,826.943C1174.53,847.826 1170.32,869.299 1164.61,891.376C1156.68,922.012 1145.67,953.759 1130.28,986.526C1112.89,1023.55 1090.38,1061.83 1061.15,1101.25C1034.99,1136.54 1004.01,1172.74 966.531,1209.63C964.441,1211.52 965.194,1214.12 968.213,1215.43C971.231,1216.74 975.378,1216.26 977.469,1214.37C1029.14,1171.25 1071.61,1128.87 1105.7,1087.17C1131.43,1055.7 1152.4,1024.72 1169.21,994.345C1187.79,960.796 1201.42,928.041 1210.51,896.282C1217.08,873.297 1221.21,850.818 1223.33,828.989C1229.34,767.204 1220.36,710.563 1203.99,660.681C1156.88,517.184 1049.02,429.752 1049.02,429.752C1047.04,428.018 1043.18,427.616 1040.41,428.857C1037.64,430.097 1037,432.513 1038.98,434.248L1038.98,434.248Z" style="fill:rgb(249,0,255);stroke:rgb(249,0,255);stroke-width:33.51px;"/>
        </g>
    </g>
</svg>
